<?xml version="1.0" encoding="utf-8"?>
<!-- Generator: Adobe Illustrator 23.0.0, SVG Export Plug-In . SVG Version: 6.00 Build 0)  -->
<svg version="1.1" xmlns="http://www.w3.org/2000/svg" xmlns:xlink="http://www.w3.org/1999/xlink" x="0px" y="0px"
	 viewBox="0 0 512 512" style="enable-background:new 0 0 512 512;" xml:space="preserve">
<style type="text/css">
	.st0{fill:#FFFFFF;}
	.st1{fill:#2F2F3F;}
	.st2{fill:#1E1D2F;}
	.st3{fill:#1D1D2F;}
	.st4{fill:#902B37;}
	.st5{fill:#2A2A32;}
	.st6{fill:#242132;}
	.st7{fill:#1E1E30;}
	.st8{fill:#2B2334;}
	.st9{fill:#272031;}
	.st10{fill:#383848;}
	.st11{fill:#7F7F89;}
	.st12{fill:#FEFEFE;}
	.st13{fill:#FBFBFB;}
	.st14{fill:#FCFCFD;}
	.st15{fill:#FCFCFC;}
	.st16{fill:#FAFAFB;}
	.st17{fill:#F0F0F1;}
	.st18{fill:#F7F7F8;}
	.st19{fill:#202032;}
	.st20{fill:#A6A6AC;}
	.st21{fill:#545461;}
	.st22{fill:#EFEFF0;}
	.st23{fill:#9D9DA4;}
	.st24{fill:#484856;}
	.st25{fill:#5F5F6B;}
	.st26{fill:#7A7A84;}
	.st27{fill:#888890;}
	.st28{fill:#7D7D87;}
	.st29{fill:#FDFDFD;}
	.st30{fill:#49455C;}
	.st31{fill:#DD824A;}
	.st32{fill:#48455C;}
	.st33{fill:#DE824A;}
	.st34{fill:#F45F58;}
	.st35{fill:#C8AA96;}
	.st36{fill:#453939;}
	.st37{fill:#D5D5D6;}
	.st38{fill:#DAD9DA;}
	.st39{fill:#CFCFD1;}
	.st40{fill:#C45553;}
	.st41{fill:#BCBCC0;}
	.st42{fill:#A4A4AA;}
	.st43{fill:#272734;}
	.st44{fill:#A7A7AE;}
	.st45{fill:#6A6A75;}
	.st46{fill:#F9F9FA;}
	.st47{fill:#40404F;}
	.st48{fill:#A1A1A8;}
</style>
<g id="레이어_2">
	<g>
		<g>
			<path class="st0" d="M39.9,92.8c0.2,0,0.4,0,0.6,0c-1.9-0.8-3.8-1.6-5.7-2.3c0.4,0.5,0.9,3,1.2,4c0.7,2,1.4,4.1,2.1,6.1
				c1,3.1,2.6,7,2.8,10.2c0.4-1.3,0.7-2.7,1.1-4c-2.2,3.1-7.9,3.9-10.6,6.9c-2.6,2.9-3.5,6.8-4.6,10.4c-1.4,4.6-2.8,9.2-0.1,13.6
				c2.1,3.3,5.8,5.4,8.8,7.6c7.2,5.4,15,9.5,23.8,5.1c7-3.5,15.2-8.5,13.8-17.5c-0.7-4.2-3.4-7-5.5-10.5c-2.1-3.3-3.6-6.9-5-10.6
				c-2.9-7.3-6.3-18.4-16.4-14.1c-7.7,3.3-13.4,12.1-12.2,20.5c1.2,8.3,5.5,16.9,14.1,19.2c9.9,2.8,14.2-12.7,4.3-15.4
				c-0.7-0.2-2.3-3.7-2.4-5.4c-0.1-1.2-0.1-1.5,0.6-2.5c0.9-1.4,2.5-1.1,0.1-1.3c-1.9-0.8-3.8-1.6-5.7-2.3c1,1.3,1.5,4,2.1,5.6
				c1,2.4,1.9,4.8,3,7.2c1,2.2,2,4.4,3.3,6.5c0.4,0.7,3.2,5.7,3.9,5.7c-0.5,0,1.7-2.6,0.3-2.5c-0.6,0-1.8,1.1-2.4,1.4
				c-1.7,1-3,2.1-4.4,1.8c-2.5-0.6-9.7-5.4-10.8-7.5c0.4,1.3,0.7,2.7,1.1,4c-0.1-2,1.1-6.2,2.1-7.8c1-1.6-0.8-0.4,1.7-1.2
				c1.1-0.3,2.2-1.2,3.1-1.8c5.7-3.7,9.7-7.5,8.3-14.7c-1.2-6-3.1-12-5.2-17.7C49,83.8,47,76.7,39.9,76.8C29.6,77,29.5,93,39.9,92.8
				L39.9,92.8z"/>
		</g>
	</g>
</g>
<g id="레이어_1">
	<path class="st1" d="M46.8,161.7c13.6-3.5,25.6-9.4,32.7-22.5c5-1.6,3.7-5.3,2.6-8.6c-14-42.8-34.8-82-61.1-118.7
		c-3,2.3-0.8,3.8-0.2,5.2c0.8,1.8,2,3.3,3.1,4.9c8.5,12.5,16.9,25.2,23.8,38.7c1.7,3.3,5,6.2,3.4,10.6c-8.9,4.7-15.5,11.4-18.8,21
		c-10.4,2.1-13.7,0.3-16.2-10.5C11.6,62.5,8,43,5.9,23.2c-1-9.3-2.3-18.5-3-27.8c-0.7-8.8,3.3-11.2,10.8-10.9
		c4.7,0.2,9.3,1.1,13.9,1.9c38.5,6.2,76.3,15.5,113.5,27c3.3,1,6.6,2.3,9.6,4.2c3.9,3.8,8.8,6.1,13.5,8.5c5.1,5,10.8,2.7,16.4,1.4
		c13.5-3,26.8-7.9,41-6.4c3,1.6,4.9,4.7,9,4.8c12.9,0.5,25.2,4.3,37.7,6.9c11.4,2.4,11.4,2.3,8.9-9.1c-0.3-1.6-0.3-3.1,0.5-4.5
		c18.2-5.6,35.8-1.3,53.2,3.9c3.6,1.1,6.6,4.5,10.5,1c6.6-6.6,9.5-14.1,5.6-23.3c-0.1-11.3,6.1-15.1,19.3-12.7
		c-7.7-6-14-10.2-10.4-18.6c3.4-7.9,9.6-3.2,16.2-2.9c-12.8-8.7-10.6-18.7-4.8-29.1c5.2-9.2,9.5-10.2,17.2-3
		c11.7,10.8,22.5,22.5,32.8,34.8c21.6,25.7,40.6,53.1,56.4,82.7c1.6,3.1,3.9,5.9,3.7,9.7c-2,3.8-1.1,7.4,0.7,11
		c9.6,19.8,17.8,40.2,25.7,60.8c1.5,4,4,6.4,7.8,7.7c4,4.4,3.3,10.2,4.1,15.4c1.5,11.2,5.8,21.5,8.9,32.1
		c-7.9,3.5-10.2,9.5-7.6,17.6c-0.8,6.4,4.2,13.4-2,19.2c-4.8,2.9-3.2,7.6-2.7,11.6c5.1,38.1,8.3,76.4,9.6,114.8
		c0.1,4,1.4,6.6,5.1,8.1c5.5,4.7,3.6,11.1,4.1,17c0.5,7.1-1.1,14.4,1.2,21.4c2.2,5.6,10.2-1.2,11.9,5.5c1.9,8.6,1.4,17.3,0.1,25.9
		c-1.8,5.3-1.4,10.7-1.4,16.2c0,50.5,0,101.1,0,151.6c0,15.8,0.9,31.7-2.6,47.4c1.1-3.1-0.3-6.5,1.1-9.6c5-2.1,5,2.3,5.3,4.7
		c2.2,16.7-1.7,33.2-2.7,49.8c-0.2,2.8-2.1,5.4-5,5.8c-3.7,0.5-5.5-2.4-6.6-5.4c-2.1-5.8-3.6-11.9-5.6-17.8c-1.3-4-2.4-9.6-7.3-9.4
		c-5.7,0.2-4.5,6.3-5.1,10.2c-3.7,22.3-8.2,44.3-17.7,65c-1.4,3.2-2.7,6.5-4.6,9.4c-2,3.2-3.9,7.4-8.7,6.2c-3.9-1-4.8-4.8-5.3-8.3
		c-3.1-18.4-7.3-36.5-16.1-53.9c-0.7,3.7,2.6,6.1,1.6,9.1c-4.1,2.5-5.2,7-7.4,10.8c-2,3.5-3.2,8-8.5,8.2c-5.3-0.6-6.3,3.9-8,7.1
		c-3.9,7.2-8.3,14.1-13.6,20.4c-3.1,3.7-6.4,7.3-11.8,5.4c-4.7-1.6-5.7-5.9-6.3-10.3c-6.9-54.4-22-106.7-38.9-158.6
		c-7.5-23-16-45.6-26.9-67.2c-5.7-11.3-1.2-22.2-1.5-33.2c-0.1-4.5,5.5-6.2,9.6-7.3c18.1-4.5,36.4-8.5,54-14.8
		c8.5-3,12-0.1,11.8,10.1c-1.1,38.2-2.6,76.4-25.3,109.8c7.1-4.3,10.8-11.3,13.6-18.7c7.3-19,11.1-38.8,12.9-59.1
		c2.6-30.7,2.9-61.4,2.1-92.1c-0.7-26.4-3.7-52.7-5.4-79.1c-1.3-20.7-6.1-40.6-10.4-60.8c0.9,12.6,2.3,25.2,4.2,37.7
		c0.8,5.4,1.6,10.8,2.1,16.2c0.3,3.4,1.1,7.4-3.4,8.8c-4.1,1.3-6.6-1.4-8.8-4.2c-3.4-4.2-6.8-8.7-9.1-13.6
		c-7.6-16.2-19.4-30.1-24.9-47.4c-0.5-1.4-1.4-2.8-3.5-2.9c-3.4,3.3-2,8-3,12c-1.3,5.3-1.8,10.8-3.8,15.9c-1.9,4.8-4.3,9.9-10.6,9
		c-6.4-0.9-7.2-6.4-7.4-11.6c-0.3-13.3-2.8-26.3-4.9-39.4c-0.6-3.7-0.4-7.8-4.4-11.8c-1.5,16.7-2.5,32.4-5.6,47.9
		c-7,36-16.7,71.2-34.8,103.5c-8.5,15.1-13.6,15.9-24.3,2.3c-11.8-15-21.7-31.4-32.3-47.2c-4.1-6.1-7.7-9.3-14.4-2.5
		c-6.7,6.9-10.3,1.6-12.2-4.8c-5.2-18-8-36.4-9.9-55.1c-2.3-22.4-3.8-44.8-0.9-67.3c-2.8,9.2-4.6,18.4-4.4,27.9
		c0.4,24.2-8.6,44.3-24.5,62.2c-5.7,6.3-6.5,16.4-13.7,22.4c-3,2.5-5.4,5.6-8.4,8.1c-8.9,7.2-16.5,5.5-17.6-5.4
		c-1.7-16.5-7.8-33-2.7-49.9c7.5-5.1,16.3-6.5,24.8-8.8c2.1-0.4,4.3-0.2,6.3-1c3.9-4.4,3.8-10,3.9-15.3c0.3-9.6-0.1-19.2,1.8-28.8
		c0.7-3.6,2.4-8.9-4.4-9.9c-1.2-0.2-2.3-0.4-3.4-0.7c-21.5-6.6-20.5-6.4-23.2,15.5c-1.9,15.7,0.5,31.8-4.1,47.2c-6.4,2.4-5.9-3-6-6
		c-0.6-13.9,0-27.7,0.6-41.9c3.6,54.7-7.9,104.1-52.5,143.7c16.6-4.8,17.9-3.7,18.5,11.4c0.3,8.3-2.3,16.2-3.8,24.2
		c-5.5,30.1,2.3,44.6,30.3,55.9c11.5,4.6,14.2,9.5,9.6,22c-10.1,27.1-25.8,50.6-49.2,68.2c-13.2,9.9-16.2,8.4-17.9-7.4
		c-0.1-0.8-0.6-1.4-1.8-2.4c-5.7,1.2-8.5,7.1-13.4,9.9c-3,1.7-6.1,3.9-9.7,1.3c-3-2.2-2.7-5.5-2-8.6c5.6-25.5,10.8-51.1,14.5-76.9
		c0.4-2.6,0.8-6.8,5.7-4.5c2.1,3.5,1.3,7.3,1,11c0.1-23.4,4.6-46.3,6-68.8c-1.6,3.7-0.5,8.4-1,13c-0.4,3.2,0.4,7.5-5.2,6.7
		c-5.1-9.5-2.2-19.8-2.6-29.7c-0.3-7.6-1.9-13.6-7.1-20c-8.6-10.5-6.8-24-1.8-35.3c3.8-8.5,4.2-16,2.4-24.6
		c-2.4-11.3-5.5-22.7-0.7-34.2c6.5-6.8,16.1-2.8,23.4-6.7c2.5-0.6,5,0,7.4,0.5c13.8,0.6,15.9-1.2,16.1-14.4
		c0.2-15.1-0.2-30.2,0.1-45.3c0.2-9.2-2.8-14.3-12.9-12.6c-2.6,0.1-5-0.8-7.6-0.7C44.4,208,44.7,208,42,226c-2.3,15-1,30.1-1.5,45.2
		c-0.2,5.3,0.6,11-3.8,15.3c-5.2-1-5.1-5.4-5.2-9.1c-1.3-38.3,4.1-75.9,13.1-113.1C44.9,163.1,46,162.5,46.8,161.7z"/>
	<path class="st2" d="M121.5,281.4c1.2,8.6-4.6,18.5,4.9,25.5c-5.2,8.1-2.2,16.5-0.5,24.7c1.9,9.4,5.2,10.8,11.9,4.7
		c5.2-4.7,10.7-9.4,14.6-15.1c5.2-7.6,7.8-16.4,15-23.6c6.9-7,9.1-18.6,13.8-28c2.5-5.1,3.7-10.3,3.1-15.8
		c-1.3-12.5,2.3-24.7,2.4-37.1c0-3.8,1.6-7.8,5.4-7.9c5.1-0.1,3.8,4.9,3.9,8.1c0.3,10.1-2.8,19.8-2.5,30.1
		c1,30.7,4.3,60.9,11.8,90.7c0.7,2.9,0.6,6.9,4.1,7.5c2.8,0.5,4.1-3,5.5-5.3c5.2-8.9,9.4-6.7,14.2,0.7c11.7,17.9,23.7,35.5,36,53
		c8.1,11.5,10.5,11,17.2-1.3c13-24.1,23.5-49.2,29.3-75.9c5.2-23.9,11.4-47.8,10.7-72.6c-0.1-3.8-1-9.1,3.8-9.9
		c6.5-1,5.3,5.4,6.1,9.1c3.2,15.9,6.5,31.8,6.5,48.2c0,3.8-0.9,8.6,4.2,9.7c5.8,1.2,6.8-3.8,7.9-7.9c2.4-8.6,4.6-17.2,4.3-26.3
		c-0.1-3.2,0.2-6.7,4.1-7.3c3.7-0.6,5.9,2.4,6.8,5.3c2.9,9.8,7.2,18.8,12.4,27.5c7.4,12.3,14.9,24.6,22.4,36.9
		c1.2,1.9,2.4,4.5,5.3,3.4c3.3-1.3,1.2-3.8,0.9-5.9c-2.4-16.6-4.8-33.3-7.2-49.9c-0.2-1.2-0.5-2.4-0.3-3.5c0.6-3.8-2.3-10,3.6-10.6
		c3.9-0.4,4.8,5.4,5.5,9.2c6.8,36.2,9.7,72.8,12.4,109.6c2.3,31.8,2.4,63.5,1.5,95.1c-0.8,28.6-3.3,57.2-13.6,84.5
		c-3.2,8.5-7.7,16.1-13.7,22.9c-2.7,3-6,6-9.9,2.2c-4-3.8,0.2-6.3,2.4-8.5c12.1-11.8,15.6-27.4,19-43c4.6-21.3,6.9-42.7,6.8-64.5
		c0-6.3-1.6-8.8-8-6.1c-17.6,7.4-36.3,10.9-54.8,15.2c-5.4,1.2-6.2,3.5-7.3,10.4c-4.7,30.5,16,52.2,24.1,78
		c16.2,51.8,32.6,103.4,41.3,157.1c1,6.5,3,12.8,2.4,19.6c-0.3,2.9,0.9,5.5,3.8,6.6c3.6,1.4,5.6-0.8,7.6-3.6
		c6.5-8.7,12.8-17.6,17.3-27.5c2-4.4,4.9-9.9,8.5-0.8c-0.3,10.6-8.1,17.8-12.1,26.6c-4.3,9.8-13.2,16.3-18.7,25.2
		c-2.6,8.8,0.1,17.9-1.8,26.7c-0.6,2.7-2.7,4.1-4.7,5.7l0-0.1c-10.4,1.4-9.5-6.9-10.1-12.7c-1.3-13.5,0.2-27.1-1.5-40.7
		c-5.7-46.4-16.6-91.6-30.5-136.1c-0.5-5.6-1.4-11.1-4.6-15.9c-10.7-28.3-19.4-57.5-34.3-84.1c-2.2-4-2.3-8.2-1.2-12.5
		c1.7-6.6-1.4-10.4-7.3-12.4c-18.2-6.1-36.9-8.2-55.4-9.6c-2.4,3.5-0.4,5.3,0.9,7c19.1,23,11.4,59-6,77.2c-1.6,1.7-3.3,3.3-4.9,5
		c-6.8,7.5-6.3,9.2,3.7,12c31.5,8.8,63.6,14.7,96.1,18.6c2.7,0.3,5.4,0.5,7.9,1.7c3.8,3.4,5.5,7,1.1,11.1c-1.2,0.7-2.4,0.6-3.6-0.2
		c-19.5-3.2-39-6.5-58.6-9.4c-15.4-2.3-29.9-8.7-45.7-9.2c-2.1,1.3-4.1,0.6-6.1-0.1c-1.3-0.3-3.5-1.7-3.9-0.6c-1.3,3,2.2,4,3.4,6
		c6.4,3.4,4.9,9.3,4.7,14.8c-0.6,1-1.5,1.6-2.6,1.8c-8.3-2-10.3-9.9-14.4-15.7c-9-12.8-8.7-12.9-23.1-8.1c-1.8,0.6-3.6,1.3-5.4,2.1
		c-3.4,1.8-6.9,3.4-10.9,2.3c-4.3-1-9-2.4-8.4-7.8c0.5-5.1,5.4-5.9,9.6-7c1.5-0.4-0.4,0.1,1.1-0.2c16.5-3.6,16.5-3.6,6.7-17.1
		c-2.3-6.1,0.4-8.8,6.4-9c1,0.5,2,1.2,2.8,2c14.5,15.2,23,14.4,35.1-3.1c3.7-5.4,5.5-11.9,9.5-17.1c8.9-20.6,2.9-41.3-14.1-48.3
		c-10.7-2.8-21.3-2.5-32.1-0.5c-6.3,1.2-9.2,4.6-9.3,11c-0.1,10-0.3,20,3,29.7c0.4,1.9,0.2,3.7-0.4,5.5c-3.2,4.1-6.3,8.4-11.8,2.8
		c-3.6-5.8-3.5-12.6-4.9-19c-1.4-6.5-1.5-13-1.5-19.9c-13.6,4.2-20,17.9-32.9,21.9c-6.1-1-8.1-4.1-5.2-9.8c0.4-0.7,0.8-1.3,1.2-2
		c9.5-18.9,7.9-21.8-12.5-25c-6.6-1-10.3,1-12.5,7.2c-10.5,30.1-28.5,55.2-53.2,75.3c-5.7,4.7-7.4,10.5-7.4,17.5
		c0.1,19.1-0.2,38.1,0.1,57.2c0.5,38.2-2.6,76.1-5.8,114.1c-0.2,1.9-0.9,3.8,1.4,6.1c6.6-4.8,10.5-12.1,15.8-18.1
		c2.8-3.2,5.1-6.9,7.8-10.2c3.9-4.6,7.2-11.7,14.7-8.8c7.5,2.9,7.4,10.1,6.4,17c-1.3,8.8-0.3,17.6-2.2,28.6
		c12.3-10.1,18.9-20.2,20.9-33.7c6.1-39.6,13.5-79,23.6-117.9c1.9-7.2,2.1-15.8,10.6-19.7c11.6,0.9,14.9,4.5,13.4,16.1
		c-1.8,14.2-5.5,28.1-8.4,42.2c-9,42.9-14.9,86.2-18.6,129.9c-0.8,13.5-11.8,16.1-21.5,20.1c-7-6.5-2.1-14.4-2.1-21.6
		c0-4.4,2-8.8-0.3-14.6c-6,5-11.4,9.8-17.1,14.2c-3,2.3-6.3,5.3-10.5,2.8c-4.2-2.5-2.9-6.6-2.3-10.5c1.5-11.1,2.7-22.2,4.2-33.9
		c-6.5,0.4-7.9,4.9-10.4,7.9c-10.6,12.9-21,26.1-35.7,34.9c-2,1.2-4.1,2.8-6.4,1.5c-2.1-1.3-0.7-3.4-0.2-5.2
		c10.9-43.9,10.2-88.7,10.2-133.4c0-21.8-0.2-43.6,0.1-65.4c0.1-6.2-0.6-10.1-8.2-7.4c-2.2,0.8-5.9,1-6.5-0.9
		c-4.2-13.3-11-4.8-17-2.3c-6.1,2.5-12.1,5.5-8.5-5.9c0.7-2.2,0.9-5.1-1.6-6.2C3.2,555,6.8,547.1,9,539.1
		c15.2-56.8,20-114.7,18.1-173.4c-0.7-22.1,3.2-44.3,2-66.3c-2.5-45,2.4-89.2,10.2-133.4c1.5-8.4,1.9-8.4,7.6-4.2
		c-0.2,17-5.9,33-9.5,49.4c-4.5,20.4-2.9,41.5-2.7,62.3c0,4.3-2.3,9.4,2.8,12.7l-0.1-0.1c-2,16,2.3,31.4,4.8,47
		c0.4,2.6,2.6,5.5,0,7.5c-10.3,7.7-6.7,18.8-7.3,28.9c-0.3,5.3,0,9.6,6.4,11.8c4.9,1.7,5.4,6.9,5.4,11.8c-0.1,12.8,0,25.6,0.1,38.3
		c4.6,12.8,2.5,25.1-2.5,37.2c-3.9,20.4-7.7,40.8-11.6,61.2c-1.4,7.2-3.3,14.3-4.7,21.5c-0.4,2.1-2.4,4.8,0,6.5
		c2.7,1.9,5.2-0.4,7.2-2.1c3.3-2.7,6.1-6.1,9.3-8.9c2.5-2.1,4.2-6.5,8.5-4.4c3.8,1.9,2.5,6,3.1,9.4c0.6,3.3-4.2,7.2,0,9.4
		c4.2,2.2,7.2-2.3,10-4.4c24.6-18.4,41.4-42.5,51.1-71.7c2.8-8.3,0.3-11.9-7.8-14.3c-28-8.2-40.1-28.8-33.8-57.2
		c2.8-12.8,6.2-25.5,2.9-38.9c-6.1,0.5-11.4,12.1-16.4,5c-4.1-5.8,6-10.3,10.3-14.9c18.4-19.7,30-43.1,38.8-68.1
		c1.4-3.9,0.9-8.5,0.9-12.7c-0.4-19.1,2.2-37.9,4.8-56.7c0.3-1.9,0.5-3.9,4.9-5c-3.3,16.1-2.9,31.7-2.7,47.3
		C118.8,273.7,116.8,278.5,121.5,281.4L121.5,281.4z"/>
	<path class="st3" d="M550.9,543.6c-4.4,21.5-3.3,43.3-1.3,64.6c1.7,17.5,2.3,34.9,1,52.1c-1,12.8-1.1,25.5-1.7,38.2
		c-0.1,1.9,0.2,3.9-0.1,5.8c-1.3,8.5,0.8,21.5-9.3,22.5c-10.7,1-6.7-12.6-8.8-19.4c-2.9-9.5-4.9-19.3-8.8-30.5
		c-5.3,9-5.7,17.9-7.5,26c-4,17.5-9.7,34.2-17.7,50.2c-2.3,4.6-5.3,8.6-9.3,11.8c-7,5.6-11.3,3.2-13.6-5.5
		c-3.1-11.8-0.4-24.3-4.8-35.8c-7.5-5.3-8.9-12.6-6.8-21c0.6-4.1-3.2-6-4.4-9.2c-1.1-2.9-5-6.7,0.1-8.8c4.2-1.8,6.1,2.3,7.5,5.5
		c5.4,13.3,10.7,26.6,13.3,40.8c0.7,3.8,1.5,7.6,2.3,11.4c0.7,3.5-1.6,9.2,3.5,9.7c4.2,0.4,4.8-5.5,6.4-8.8
		c11.5-23.2,17.4-48,20.4-73.5c0.6-5.2,1-11.7,6.2-12.7c6-1.2,9.2,5.1,11.1,10.1c2.7,7.2,4.3,14.8,6.3,22.3c0.5,1.9,0.9,4.2,3.2,4.3
		c3,0.1,3.6-2.7,3.6-4.9c-0.4-18.2,4.7-36.3,2.2-54.6c-3.1-4.2-2-9-2-13.5c-0.1-23.7-0.3-47.4,0-71.1c0.5-36.1-2-72.2-1.2-108.3
		c0.1-3.8-0.7-7.8,0.8-11.5c0-9.8,0-19.5,0-29.3c-3.8-4.2-3.2-9.4-3.2-14.4c1-62.2-3.3-123.9-16.1-184.9c-0.7-3.4-1.6-6.9,0.7-10.1
		c-8.5-15.4-9.6-32.9-13.6-49.5c-2.5-0.5-3.8-2.3-4.7-4.6c-8.5-22.6-17.5-45-28.1-66.7c-1.2-2.4-2.4-4.9-0.5-7.6
		c-24.3-46.3-54.5-88.2-92.3-124.5c-2.9-2.8-5.5-10.4-11.7-3.6c-5.9,6.5-8.3,20.3-4.3,24c1.7,1.5,3.8,2.6,5.5,4.2
		c2.5,2.3,3.6,5.6,1.8,8.4c-2.5,3.7-5.4,1.3-7.8-0.8c-2.6-2.2-5.5-5.9-8.5-1.3c-2.7,4.2-3,8.9,2.4,11.9c1.4,0.8,2.9,1.3,4.1,2.2
		c2.4,1.8,6.2,3.5,4.5,7.1C368.5-7,365-8,362.5-9.1c-11.2-4.6-12.1,3.9-14.1,11c1.7,8.1-1.8,15-4.8,22.1c-2.2,5.9-2.1,13.3-11.4,3.7
		c-7.8-8-21-6.2-31.9-7.6c-7.6-1-15.5,0-23.2,0.2c-2.4,2.3-5.4,3.1-8.5,2.9c-15.5-1.2-31,3.4-46.4-0.7c-16.6,2.1-33,5.6-49.1,10.2
		c-5.7,1.6-8.9,0.7-9.8-5.5c-1.6-5.7-8.2-3.5-11.3-7C113.3,7.7,73.9-2,33.9-9.5c-3.4-0.6-6.9-0.6-10.4-1C4.4-12.6,4.1-12.6,6.8,6.2
		c3.6,24.5,7.8,48.8,11.6,73.2c1.3,8.1,4.5,13.6,13.8,12.9c2.4,9.6-5.5,14.9-9.9,21c-7.3,10.3-9.1,19.3-0.1,29.3
		c2.1,2.3,27.6,19.7,24.1,22.2c-4.8,3.3-27.8-16.1-29.9-18.7c-8.4-10.3-11.6-21.2-2.1-32.7c3.5-4.2,2.7-8.6,1.5-13.2
		C6.1,63.8,1.8,26.4-2.7-11c-1.1-9.2,1.4-12.6,11.2-11c56.4,9.3,112.2,21.2,165.8,41.6c5,1.9,9.6,1.6,14.7,0.5
		C235.8,9.7,282.8,6.2,330.1,17c4.9,1.1,7.4-0.2,8.3-5.1c0.6-3.4,2-6.8,2.2-10.2c0.2-3.2,4.4-6.9,0.3-9.4c-3.2-2-5.3,2.2-7.8,3.8
		c-1.8,1.2-3.8,3.5-5.8,0.6c-1.6-2.4-0.2-4.5,1.7-6.1c3.3-2.6,6.8-5.2,10.3-7.6c1.9-1.3,4.8-1.6,6.1-3.3c3.7-5,8.1-12.1,4-16.6
		c-3.9-4.2-9.6,1.7-13.4,5.5c-1.6,1.6-2.7,3.8-3.9,5.8c-1.1,1.7-2.4,3.5-4.5,2c-1.7-1.2-1.7-3.3-0.9-5.3
		c3.8-9.4,10.9-15.6,20.9-16.4c6.9-0.5,9-3.9,11.3-9.4c14.4-35.1,11.6-33.4,36.7-7.5c61.8,63.9,106,138,126.2,225.2
		c4.9,21.1,15.2,40.5,18.3,62.2c7.9,54.9,8.8,110.1,9.6,165.3C550.3,441.6,550.5,492.6,550.9,543.6z"/>
	<path class="st7" d="M51.1,71.4C40,52.8,29.2,34,16.7,16.3c-1.9-2.6-4.6-6.3-0.1-9c3.7-2.2,5.8,1.2,7.5,3.6
		C50.2,48.6,72,88.6,85.6,132.6c0.9,2.9,4.3,7.7-0.9,10.2c-2.7,1.3-3.3-2.7-5.2-3.7C72.4,115.6,63.4,92.8,51.1,71.4z"/>
	<path class="st12" d="M385.6,43.9c5.2-7.5,13.2-11.4,20.5-16.4c4.9-3.3,8.5-2,11.7,2.3c3.2,1.3,4.3,4.2,5.6,7.1
		c12.5,28.3,23.9,57,33.4,86.4c1.4,4.3,3.3,8.8,1.1,13.5c-0.1,2.9-0.8,5.4-4.5,5.2c-11.9-0.9-23.9-0.2-35.9-2.6
		c-6.2-1.2-5.3-6.9-8.9-9.4c-9.8-4.8-12.7-15.2-18.7-23c-8.3-10.7-14.6-22.7-18.2-36C367.2,54.8,369.2,50.8,385.6,43.9z"/>
	<path class="st3" d="M450.8,561.7c-12.5,12-23.3,22-36.2,29c-3.3,1.8-8,6.8-11.1,1.6c-3.4-5.6,3-7.7,6.8-9.8
		c14.6-8,25.9-19.5,35.6-32.9c1.7-2.3,2.6-6.2,6.6-5.7c4.4,0.5,4.7,4.4,5.9,7.7c3.1,8.3,0.9,17,1.7,25.4c0.2,2.5-1.2,6,2.1,7.2
		c3.1,1.1,4.6-2.2,6.6-3.9c17.1-15.1,25.4-34.5,28.8-56.7c5.2-33.9,4.9-68,4.4-102.1c-0.1-10.4-1.6-20.8-3-31.1
		c-0.5-3.4-1.3-6.5,2.9-7.2c3.3-0.6,4.5,2.4,4.9,5.3c1.6,11.5,4.2,22.9,4.6,34.4c1,37.6,0.9,75.2-6.9,112.2
		c-5.4,25.6-19,46.3-40.7,61.3c-8.3,5.7-12.7,3.2-13-7.2C450.6,581.1,450.8,572.9,450.8,561.7z"/>
	<path class="st14" d="M37.4,286.2C34.7,261,37.6,236,40,211c0.5-4.8,2.5-6.9,7.4-6.6c5.8,0.3,11.6,0.3,17.4,0.4
		c6.4,7.5,1.6,15.8,0.9,23.4c-1.3,14.3-2,28.5-2.1,42.8c0,3.9,0,7.8-3.1,10.8c-6.4,8.5-15.5,2.6-23.2,4.3
		C37.3,286.1,37.4,286.2,37.4,286.2z"/>
	<path class="st15" d="M146.8,274.7c-8.5,2.2-15.6,9.6-25.4,6.7c0,0,0.1,0.1,0.1,0.1c-2-21.4,1.4-42.6,2.7-63.8
		c0.4-7.2,4.4-9.3,11-8c5.9,1.2,11.6,3,16.6,6.5c0.9,1.2,2.3,2.6,2.2,4C152.4,238.5,155,257.3,146.8,274.7z"/>
	<path class="st7" d="M457.9,136.8c-11.1-36.5-26-71.6-40.1-107c-5.5-10.5-11-21-16.4-31.6c-4.8-9.3-9.6-18.7-14-28.2
		c-1.7-3.7-7.7-8.6-1.1-11.7c5.3-2.5,7.4,4,9.4,7.9c27.6,53.9,52.5,109,69.1,167.5c1.1,3.8,4.8,9.1-1.1,11
		C458,146.5,461.9,138,457.9,136.8z"/>
	<path class="st16" d="M70.1,207.1c12.9-4.3,17-1.6,16.7,10.4c-0.4,16.7-0.6,33.5-0.7,50.2c-0.1,17.4-2.8,19.6-20.9,16.4
		c-5.8-14.3-1.4-28.9-0.7-43.3C65,229.5,64.5,217.7,70.1,207.1z"/>
	<path class="st17" d="M525.3,361c-5.7,4.6-7.2,1.3-7.4-4c-0.3-11.3-0.5-22.5-0.9-33.8c-0.9-29.6-5.1-58.8-8.5-88.2
		c-0.5-4.5-3.5-10.7,5-11.4c3.9,1.5,4.5,4.7,5,8.3c5.6,38.4,10.4,76.9,9.3,115.9C527.7,352.3,529.1,357.2,525.3,361z"/>
	<path class="st18" d="M104.6,247.5c0,9.7,0,19.4,0,29.2c0,4.9-0.6,9.9-6.9,10.1c-6.5,0.2-7.3-4.7-7.2-9.7c0.6-21,1.3-42,2.1-63
		c0.2-4.3,1.8-7.8,6.7-7.9c5.6-0.1,7.2,3.8,7.2,8.6c0.1,10.9,0,21.8,0,32.6C105.8,247.5,105.2,247.5,104.6,247.5z"/>
	<path class="st19" d="M385.6,43.9c-0.1,0.4-0.2,0.8-0.5,1.1c-15.3,13.6-15.8,15.3-7.7,35c7.6,18.4,21,33.2,31.2,50
		c-0.3,4.1-1.3,9.8-6,3.8c-14.5-18.4-29.8-36.4-35.9-59.9c-0.6-2.2-0.3-4.9-1.4-6.7c-2.6-4.1-8.5-7.9-4.7-13c5-6.7,12.4-11.4,20-15
		C384,37.7,385.1,41.1,385.6,43.9z"/>
	<path class="st22" d="M222.2,22.5c18.2-2.8,36.4-5.3,54.9-2.2c2.4,5.4,10.2,10.5,6.3,16.2c-3.6,5.3-10.8,0-16.3-0.9
		c-12.6-2-25.2-4.7-37.8-7.1C225.7,27.9,220.7,29.1,222.2,22.5z"/>
	<path class="st23" d="M476.2,62.6c12.3,25.8,23.2,52.1,33.3,78.9c-3.2,4.7-5.1,1.8-6.3-1.3c-9.5-24.5-19-48.9-30.7-72.5
		C470.6,64,471.2,61.5,476.2,62.6z"/>
	<path class="st24" d="M70.1,207.1c-1.5,25.6-4.9,51.2-4.9,76.9c-1.6-0.8-3.2-1.5-4.7-2.3c-1.9-25.8,2.3-51.4,4.3-77
		C66.5,205.6,68.3,206.3,70.1,207.1z"/>
	<path class="st17" d="M154.1,216.4c3.4-3,7.1-3.5,6.7,2c-1.5,18.7-1.1,37.6-4.9,56.1c-0.2,0.9-2.4,1.3-3.7,1.9
		c-6-7-1.4-14.9-1.6-22.3C150.2,241.5,152.6,229,154.1,216.4z"/>
	<path class="st25" d="M44,468.7c0.8-12.4,1.7-24.8,2.5-37.2c4.7-7-0.3-16.3,5.5-23c3,14.5-1.2,63.3-8,79.7
		C44,479.6,44,474.2,44,468.7z"/>
	<path class="st26" d="M154.1,216.4c1.2,20.1-4.7,40-1.9,60.1c-1.8-0.6-3.5-1.2-5.3-1.8c1.6-19.5,3.3-39,4.9-58.5
		C152.5,216.3,153.3,216.3,154.1,216.4z"/>
	<path class="st27" d="M343.6,24.1c-1.4-8,2.3-14.9,4.8-22.1C354.5,6.7,352,18.5,343.6,24.1z"/>
	<path class="st28" d="M152.1,20.2c11.2-0.9,12.4-0.1,11.3,7C158.9,26,152.8,27.4,152.1,20.2z"/>
	<path class="st1" d="M161.8,599.2c-9.5,14.7-11.2,31.9-14.7,48.4c-6.9,32.5-12.3,65.3-18.9,97.8c-2.4,12-11.8,19.8-20.5,27.3
		c-4.2,3.7-6-0.6-4.8-3.7c4-10.5-0.1-21.7,3.4-32.3c1.7-5-0.5-9.9-4.9-11.9c-4.4-2.1-6.9,2.8-9,5.7c-8.3,11.2-16.5,22.5-26.1,32.6
		c-1.7,1.8-3.5,5.2-6.6,3.3c-2.7-1.6-1.8-5-1.4-7.5c8.2-59,6.9-118.4,6.7-177.8c0-8.7,3.2-13.9,9.9-19.3
		c23.7-19.2,41.4-43.2,50.6-72.5c3.2-10.3,7.6-13.5,17.4-9.1c1.4,0.6,3.8,0,4.5,0.9c4.1,5.3,17.7-4.2,15.4,8.6
		c-1.2,6.6,0.7,15-6.6,20.4c-5.4,4-3.8,7,2.5,7.9c-0.8,6.8-6.9,6.4-11.3,8.5c-5.8,0.1-7.7,4.2-9.2,8.9c-3.9,12.3-5.5,24.9-4.5,37.8
		c1,12.5,5.9,17.6,18.5,19.7C156.3,593.4,160.5,594.2,161.8,599.2z"/>
	<path class="st12" d="M198.7,347c0.9,2.1,1.8,4.2,2.7,6.4c1.7,4,3.5,8,8.8,7.9c4.9-0.1,5.8-4.3,7.6-7.7c1.2-2.3,1.5-5.4,5-6.4
		c12.7,18.3,25.4,36.8,38.2,55.2c2.2,3.2,4.7,6.2,7.2,9.2c4.8,5.9,9,7,13.1-0.9c4.5-8.6,9.5-16.9,14.1-25.5c2.8-5.2,4.1-14,11.6-3.4
		c0.7,1,3.6,0.4,5.6,0.6c9.4,7,9.4,9.2-0.1,16c-4.2,0-7.8,0.3-7.1,6.2c3.7,29.7,8.7,45.2,36.2,53c3.4,3.2,5.4,6.4,0.4,10
		c-16.5,3.9-32.9,5-50.1,3.5c-33.2-2.9-66.6-9.1-99.8,2.2c-9.6,3.3-19.7-1.1-29.6-2.2c-2.6-0.3-5.2-1.1-7.9-1.4
		c-3-2.9-3.4-6-0.5-9.2c34.7-4.5,48.1-18.3,51-53.3c0.6-7,0.4-14,0.3-21c0-3.2-0.8-6.5,4.3-6.1c3.3,0.2,6.6-0.5,6.8-4.6
		c0.2-5-3.8-6.2-7.7-7.2c-21.1-5.8-42.7-8.4-64.5-9.4c-14.3-0.6-28.8-0.4-43.1,0.5c-8.2,0.5-10.5-2-6.9-8.9
		c5.6-10.5,11.9-20.7,19.4-33.5c2,9.6,3.6,16.6,4.9,23.6c2,11.1,7.3,13.6,16.9,7.6c15.6-9.6,25.3-24.9,36.7-38.6
		c14.2-2.9,17.9-0.5,20.2,13.5C193.8,331.3,195.4,339.4,198.7,347z"/>
	<path class="st5" d="M364.3,602c-38-2-74.8-10.7-111.4-20.4c-8.8-2.4-8.9-6-2.7-11.6c11-10.1,19.8-21.3,23.3-36.6
		c4.2-18.5,1.2-34.4-11.2-48.7c-1.6-1.9-5.1-3.3-3.6-6.5c1.4-2.9,4.6-2.6,7.3-2.4c20.4,1.9,40.8,3.6,60.1,11.2
		c6.3,2.5,9.8,5.9,6.2,13.2c-2.6,5.3-0.8,9.7,2,15c14,26,23.9,53.7,32.3,82C368,599.9,366.3,601.1,364.3,602z"/>
	<path class="st29" d="M262.8,538.5c-4.6,8-7.3,17.1-14.5,23.7c-14.1,12.9-23.3,11.1-33.6-7.2c-5.5-2.7-6.4-7-4.4-12.3
		c4.3-11.9,13.3-21.5,17-34.2c-7.8,6.5-8.3,19-19.6,21.6c-6.9-12.4-4.6-25.9-4.4-39.1c0.1-3.8,3.3-4.6,6.3-5.6
		c13.2-4.4,26.4-5,39.5,0C267.7,497.7,272.4,516,262.8,538.5z"/>
	<path class="st29" d="M329.5,305c5.3,8,1.5,17.1,2.8,25.6c0.5,3.3-0.3,7.7,3.7,8.9c4.8,1.5,6.7-3,8.3-6.3
		c4.6-9.2,8.9-18.5,13.3-27.8c6.8-5.2,12.7-0.7,18.7,1.9c10.2,15.2,19,31.3,31.3,45c1.8,2,4.1,4.4,2.4,7.2c-1.4,2.3-4.2,1-6.5,0.7
		c-28.7-3.7-57.5-3.5-86.1,0.7c-8.6,1.3-11.9-0.4-7.8-9.5c6.7-14.8,8.1-31.4,15.2-46.1C326.3,303.7,327.8,303.7,329.5,305z"/>
	<path class="st30" d="M90.7,401.4c-0.6-3.8,0.8-7,2.6-10.1c8.7,1.5,14.1-0.8,13.2-10.9c2.8-8.7,8.9-10.2,17.5-10.1
		c20.2,0.2,40.2,1.2,60.1,4.6c7.7,1.3,10.1,4.7,9.4,11.5c-1.1,10.2,2.9,20.8-2.1,30.8c-3.7-4.3-7.6-6.7-13.9-6.2
		c-15.5,1.3-31.1,1-46.2-2.3c-10.9-2.3-18.7-1-21.9,10.8c-3.4-3.1-1.7-7.3-2.3-10.9c-0.6-3.7,2.2-9.9-4.9-9.5
		c-6.7,0.4-3.8,6.4-4.3,10.1c-0.5,3.4-0.2,7-0.3,10.4c-5.6-0.6-4.2-5.2-5-8.6C91.8,407.8,94,404.1,90.7,401.4z"/>
	<path class="st31" d="M406.5,412.4c-8.2,30.4-12.9,33.7-47.5,33.6c-24.9-0.1-33.9-7.2-39.7-31.3c-2.3-7.9,0.9-12.5,8.8-12.4
		c22.6,0.4,44.9-3.9,67.5-2.6C403.5,400.2,410.1,402,406.5,412.4z"/>
	<path class="st32" d="M406.5,412.4c0.7-7.7-2.9-9.6-10.2-9.2c-22.3,1.1-44.7,1.7-67,1.8c-7.4,0-10.8,2.2-9.9,9.8
		c-5.4-4.2,2.9-14.1-6.9-16.4c5.2-5.3,5.7-10.6,0.1-16c8.8-12.7,22.3-11.7,35.1-11.7c16.9,0,33.9-1.2,50.9,1.8
		c7.2,1.3,10.9,3.4,9.9,10.7C407.2,392.9,409.8,402.9,406.5,412.4z"/>
	<path class="st29" d="M147.3,525.5c2.4-4.6,7.1-5.8,11.3-7.6c9.6-7.2,17.6-16.3,28.1-22.4c5.5-3.2,7.7-2.4,7.4,4.2
		c-0.5,12.5,1.6,24.8,4.5,36.9c9.2,10.1,7.6,14-9.2,21.6c-12.7,6.7-25.1,14.1-39,18.2c-10.1,3-13.2,1-13.5-9.2
		C136.4,552.4,137.1,537.7,147.3,525.5z"/>
	<path class="st33" d="M109.4,419.5c0-3.1,0.2-6.2-0.1-9.3c-0.5-6,2.5-7.6,7.8-6.8c23,3.7,46.1,5.9,69.5,3.3
		c8.1-0.9,3.3,6.9,4.9,10.4c-13,29.2-32.9,37.2-62.4,24.8C119,437.6,110.8,431.4,109.4,419.5z"/>
	<path class="st34" d="M90.7,401.4c5.2-1,4.2,3.1,4.7,5.8c0.7,4.1-0.9,8.6,2.1,12.3c2.6,21.8,19.2,36.8,44,39.6
		c4.2,0.5,8.4,0.8,12.6,1.2c-0.2,2.4-0.3,4.8-0.5,7.3c0,1.9-0.7,2.2-2,0.8c-12.3-3.3-24.7-6.4-37-10c-24.3-7-30-15.8-26.6-41.1
		C88.8,412.1,89.8,406.8,90.7,401.4z"/>
	<path class="st5" d="M151.6,468.5c0.7-0.1,1.4-0.4,2-0.8c17.1,3.8,33.4,4.8,51.4,1c27.3-5.8,55.9-3.3,83.6,0.8
		c18.6,2.8,36.3,0.4,54.3-3.2c2.5-1.7,4.9-2,7.3,0.1c-18.4,7.2-37.6,8.5-56.9,6.2c-26.6-3.2-53.3-4.5-80.1-3.7
		c-4.1,0.1-8.4,1.7-12.3,3.3C183.8,478.9,167.7,474.9,151.6,468.5z"/>
	<path class="st36" d="M212.3,543.7c-7.8,0.2-8.2-3.5-4.8-9.2c0-1.5,0-2.9,0-4.4c7.3-5.6,9.6-14.7,15.1-21.6c2-2.5,3.2-7.7,7.5-5.5
		c4.7,2.4,0.7,6.1-0.7,8.9C223.9,522.6,218.1,533.1,212.3,543.7z"/>
	<path class="st37" d="M198.7,347c-5.9-5-6.3-12.7-6.8-19.1c-0.9-13.3-7.3-18.5-19.7-18.4c4-7.9,8-15.9,12.1-23.8
		C188.8,306.6,194.8,326.6,198.7,347z"/>
	<path class="st38" d="M106.5,380.4c2.8,4.3,5.1,9,0,13c-4.8,3.8-9.2,1.1-13.2-2.1c2.2-5.9-4-11.3-0.3-18.9
		C95.6,379.6,100.7,380.8,106.5,380.4z"/>
	<path class="st39" d="M376.3,307.2c-6.2-0.6-12.5-1.3-18.7-1.9c1.6-6.9,1.1-14.4,5.6-21.1C369.7,291.1,371.1,300.3,376.3,307.2z"/>
	<path class="st5" d="M262.8,538.5c6.2-20.5,5.6-39.2-13.7-53.1c7.7,0.1,11.3,6,14.6,11.4C271.1,508.9,270.3,528.7,262.8,538.5z"/>
	<path class="st40" d="M350.2,466.5c-2.4,0-4.8-0.1-7.3-0.1c-0.5-2.9-0.9-5.8-1.3-8.7c8.7,2.3,17.6,1.5,27.7,2
		C363,464.3,355.9,463.5,350.2,466.5z"/>
	<path class="st41" d="M329.5,305c-1.6,0.1-3.1,0.2-4.7,0.3c-0.8-7.4,0.8-14.4,3.2-22.7C330.7,290.7,332.9,297.6,329.5,305z"/>
</g>
</svg>
