<?xml version="1.0" encoding="utf-8"?>
<!-- Generator: Adobe Illustrator 23.0.0, SVG Export Plug-In . SVG Version: 6.00 Build 0)  -->
<svg version="1.1" xmlns="http://www.w3.org/2000/svg" xmlns:xlink="http://www.w3.org/1999/xlink" x="0px" y="0px"
	 viewBox="0 0 512 512" style="enable-background:new 0 0 512 512;" xml:space="preserve">
<style type="text/css">
	.st0{fill:#FFFFFF;}
	.st1{fill:#2F2F3F;}
	.st2{fill:#1E1D2F;}
	.st3{fill:#1D1D2F;}
	.st4{fill:#902B37;}
	.st5{fill:#2A2A32;}
	.st6{fill:#242132;}
	.st7{fill:#1E1E30;}
	.st8{fill:#2B2334;}
	.st9{fill:#272031;}
	.st10{fill:#383848;}
	.st11{fill:#7F7F89;}
	.st12{fill:#FEFEFE;}
	.st13{fill:#FBFBFB;}
	.st14{fill:#FCFCFD;}
	.st15{fill:#FCFCFC;}
	.st16{fill:#FAFAFB;}
	.st17{fill:#F0F0F1;}
	.st18{fill:#F7F7F8;}
	.st19{fill:#202032;}
	.st20{fill:#A6A6AC;}
	.st21{fill:#545461;}
	.st22{fill:#EFEFF0;}
	.st23{fill:#9D9DA4;}
	.st24{fill:#484856;}
	.st25{fill:#5F5F6B;}
	.st26{fill:#7A7A84;}
	.st27{fill:#888890;}
	.st28{fill:#7D7D87;}
	.st29{fill:#FDFDFD;}
	.st30{fill:#49455C;}
	.st31{fill:#DD824A;}
	.st32{fill:#48455C;}
	.st33{fill:#DE824A;}
	.st34{fill:#F45F58;}
	.st35{fill:#C8AA96;}
	.st36{fill:#453939;}
	.st37{fill:#D5D5D6;}
	.st38{fill:#DAD9DA;}
	.st39{fill:#CFCFD1;}
	.st40{fill:#C45553;}
	.st41{fill:#BCBCC0;}
	.st42{fill:#A4A4AA;}
	.st43{fill:#272734;}
	.st44{fill:#A7A7AE;}
	.st45{fill:#6A6A75;}
	.st46{fill:#F9F9FA;}
	.st47{fill:#40404F;}
	.st48{fill:#A1A1A8;}
</style>
<g id="레이어_2">
	<g>
		<g>
			<path class="st0" d="M143.2,143.8c0.1,0,0.2,0,0.3,0c-1.9-0.8-3.8-1.6-5.7-2.3c0.1,0.1,0.1,0.2,0.2,0.3c-0.7-1.2-1.4-2.4-2.1-3.5
				c1,2.5,2.9,6.2,3.1,8.7c0.4-1.3,0.7-2.7,1.1-4c1.7-2.3-1.7,0.4-2.2,0.8c-1.4,1-2.3,2.1-3.1,3.6c-1.6,3-3.1,7.7-2.2,11.2
				c1.5,5.5,10.1,10.8,15.5,10.9c6.1,0.1,14-5.3,14-11.9c0-3.8-2.3-6.2-3.9-9.4c-1.6-3.2-2.4-6.5-4.7-9.3c-1.8-2.3-5.2-2.5-7.8-2.1
				c-12.1,2-12.3,20.8-2.1,25.3c3.9,1.7,8.6,1.2,10.9-2.9c2-3.4,1.1-9.2-2.9-10.9c1.7,0.8-0.9,3.8-1.7,4c-2.6-0.7-5.2-1.4-7.8-2.1
				c-0.9-0.5-0.9-0.1,0.1,1.3c0.5,1.1,0.9,2.3,1.4,3.4c0.7,1.5,2.3,3.3,2.7,4.9c0-1.4,0-2.8,0-4.3c-0.1,0.3-0.3,0.6-0.4,0.9
				c0.7-1.2,1.4-2.4,2.1-3.5c-0.5,0.5-1,0.8-1.7,1c3.1,0.3,3.9,0.1,2.5-0.7c-0.6-0.9-2.1-1.5-2.8-2.4c0.8,1.9,1.6,3.8,2.3,5.7
				c0.1-1.3-1.4,0.6,0.5-0.5c1.3-0.8,2.6-1.7,3.7-2.8c2.6-2.7,2.8-5.8,2.1-9.3c-1.3-6-3.6-15.9-11.3-15.8
				C132.9,127.9,132.9,143.9,143.2,143.8L143.2,143.8z"/>
		</g>
	</g>
	<g>
		<g>
			<path class="st0" d="M235.8,365.5c6.2,2.9,12.5,4.8,19.2,6c3.3,0.5,6.6,1,9.9,1.3c1.7,0.2,3.5,0.3,5.2,0.5
				c0.7,0.1,2.1,0.4,1.9,0.2c-0.7-1.2-1.4-2.4-2.1-3.5c0.1,0.1,0.1,0.2,0.2,0.4c0.4-1.3,0.7-2.7,1.1-4c-0.2,0.4-0.4,0.7-0.6,1.1
				c1-1,1.9-1.9,2.9-2.9c1.7-0.1,1.5-0.1-0.6,0c-0.9,0-1.8,0-2.7-0.1c-2-0.2-3.9-0.6-5.8-1.1c-3.5-0.8-7-1.9-10.5-2.6
				c-3.9-0.8-7.9-1.6-11.5,0.5c-3.7,2.1-5.1,6.8-3.6,10.7c2.3,6.2,10,10.6,15.5,13.5c2.4,1.3,5.8,2.3,7.9,4.1
				c-0.7-1.8-0.8-1.4-0.2,1c0.1,0.5,0.1,0.9,0.2,1.4c0.7,2.2,2.2,3.9,3.6,5.7c-0.7-1.2-1.4-2.4-2.1-3.5c0.1,0.4,0.2,0.8,0.3,1.2
				c3.9-3,7.8-6,11.8-9c-2.4-1.1-4.8-2.3-7-3.7c-1-0.6-2-1.3-3-1.9c-0.4-0.3-0.9-0.6-1.3-0.9c-1-1.1-1.2-0.3-0.6,2.3
				c-1,1-1.9,1.9-2.9,2.9c1-0.5,6.9,0.2,8.7,0.2c2.9,0,6.7-0.7,9.4,0c-1.9-1.9-3.7-3.7-5.6-5.6c1.2,2.9,1.1,6.7,1.5,9.9
				c0.4,3.2,0.8,6.6,0.3,9.8c4.9-0.6,9.7-1.3,14.6-1.9c-0.8-1.1-1.6-2.2-2.4-3.3c-5.2-7.2-16.7-3.1-14.6,6.2
				c1.2,5.4,2.3,10.9,3.3,16.4c0.9,5.2,2.5,10.9,2.5,16.1c-0.1,4.7-2.3,8.5,0.5,13.1c3,5,8.9,5.7,13.8,3.4c-3.6-1-7.3-1.9-10.9-2.9
				c0.9,1.6,1.9,2.9,3.1,4.3c3.2-4.2,6.5-8.4,9.7-12.6c-1.7-0.9-3.5-1.8-5.3-2.6c-4-1.7-8.6-1.2-10.9,2.9c-2,3.4-1.1,9.2,2.9,10.9
				c1.8,0.8,3.6,1.6,5.3,2.6c8.3,4.4,15.4-5.7,9.7-12.6c-0.2-0.4-0.4-0.7-0.6-1.1c-2.3-4-7.1-4.7-10.9-2.9c-0.3,0.1-0.6,0.3-0.9,0.4
				c2.1-0.3,4.1-0.5,6.2-0.8c-0.3-0.1-0.7-0.2-1-0.2c1.2,0.7,2.4,1.4,3.5,2.1c0,0-0.1-0.1-0.1-0.1c0.4,1.3,0.7,2.7,1.1,4
				c0-3.3,1.3-6.5,0.9-9.9c-0.4-3.9-1.1-7.9-1.7-11.7c-1.3-7.8-2.8-15.5-4.5-23.1c-4.9,2.1-9.7,4.1-14.6,6.2
				c0.8,1.1,1.6,2.2,2.4,3.3c3.6,4.9,13.3,5.6,14.6-1.9c1.5-8.6,0.7-18.9-1.5-27.4c-2.5-9.8-17-7-24.5-7c-4.1,0-8.3-0.3-11.9,2
				c-4.1,2.6-5.7,7.8-4.7,12.3c1.9,8.4,12.3,13.5,19.4,16.8c6,2.8,13.8-1.8,11.8-9c-0.3-1.1-0.6-2.1-1.1-3.1c-1.4-1.8-1.7-2.2-0.7-1
				c-0.4-1.9-0.5-3.4-1.4-5.2c-1.6-2.9-4.2-5-7-6.6c-4.7-2.7-13.6-5.2-16.2-10.3c0,2.7,0,5.4,0,8.1c0.1-0.2,0.2-0.5,0.4-0.7
				c-1.6,1.2-3.2,2.5-4.8,3.7c-1.3-0.1-0.9-0.1,1.1,0.3c1.2,0.2,2.4,0.5,3.5,0.8c1.8,0.4,3.5,0.9,5.2,1.4c4.1,1.1,8.4,2,12.7,2.2
				c8,0.4,17.1-3.9,14.7-13.5c-2.2-9-11.8-9.2-19.2-10c-7.7-0.8-15.6-2-22.7-5.3c-3.9-1.8-8.6-1.1-10.9,2.9
				C230.9,358,231.9,363.7,235.8,365.5L235.8,365.5z"/>
		</g>
	</g>
	<g>
		<g>
			<path class="st0" d="M193.2,461.7c17.5-3.4,35.6-1.5,53.3-3.7c8.6-1.1,17.2-2.5,25.7-3.8c4.1-0.6,7.7-2.1,8.9-6.5
				c0.9-3.3,0.8-8.6-0.1-11.9c-1-3.5-4.2-5.7-7.7-5.9c-3.7-0.2-8,1.8-11.5,2.9c-9.8,3-5.6,18.4,4.3,15.4c1.9-0.6,5.3-2.4,7.2-2.3
				c-2.6-2-5.1-3.9-7.7-5.9c0,0,0,3.7,0,3.7c1.9-1.9,3.7-3.7,5.6-5.6c-2.8,1.1-6.4,1.1-9.5,1.6c-3,0.5-6,0.9-9,1.4
				c-7,1-14,1.9-21.1,2.2c-14.3,0.7-28.5,0.2-42.7,3C178.9,448.2,183.1,463.6,193.2,461.7L193.2,461.7z"/>
		</g>
	</g>
	<g>
		<g>
			<path class="st0" d="M276.1,422.1c0.5,1.7,0.2,3.4,0.2,5.2c0,1.8,0.3,3.7,0.5,5.5c0.2,1.9,3.2,1.9,3,0c-0.3-2.1-0.5-4.2-0.5-6.4
				c0-1.8,0.2-3.4-0.3-5.1C278.5,419.4,275.6,420.2,276.1,422.1L276.1,422.1z"/>
		</g>
	</g>
	<g>
		<g>
			<path class="st0" d="M293.6,446.1c-34.2,5.3-68.8,8.4-103.3,11.3c-4.5,0.4-4.5,7.4,0,7c35.2-2.9,70.3-6.1,105.2-11.5
				C299.9,452.2,298,445.4,293.6,446.1L293.6,446.1z"/>
		</g>
	</g>
	<g>
		<g>
			<path class="st0" d="M183.4,454.7c0.2,1.4,0.4,2.6,0.9,3.9c0.5,1.3,0.9,2.8,1.9,3.9c1.7,1.8,4.4,2.3,6.6,1.3
				c1.7-0.8,2.2-3.2,1.3-4.8c-1-1.7-3.1-2.1-4.8-1.3c0.7-0.4,3.4,0.2,1.8-0.3c-0.5-0.3-0.3-0.1,0.5,0.6c-0.2-0.4-0.2-0.5-0.2-0.4
				c-0.2-1-0.8-2.1-0.9-2.9c-0.2-1.9-1.5-3.5-3.5-3.5C185.2,451.2,183.2,452.8,183.4,454.7L183.4,454.7z"/>
		</g>
	</g>
</g>
<g id="레이어_1">
	<path class="st1" d="M146.2,168.7c5.8-1.5,11-4,14-9.6c2.1-0.7,1.6-2.3,1.1-3.7c-6-18.3-14.9-35.1-26.1-50.8
		c-1.3,1-0.4,1.6-0.1,2.2c0.3,0.8,0.9,1.4,1.3,2.1c3.6,5.4,7.2,10.8,10.2,16.5c0.7,1.4,2.1,2.7,1.4,4.5c-3.8,2-6.6,4.9-8,9
		c-4.4,0.9-5.8,0.1-6.9-4.5c-1.9-8.3-3.5-16.6-4.4-25.1c-0.4-4-1-7.9-1.3-11.9c-0.3-3.8,1.4-4.8,4.6-4.7c2,0.1,4,0.5,5.9,0.8
		c16.5,2.7,32.6,6.6,48.6,11.6c1.4,0.4,2.8,1,4.1,1.8c1.7,1.6,3.8,2.6,5.8,3.7c2.2,2.2,4.6,1.2,7,0.6c5.8-1.3,11.4-3.4,17.5-2.7
		c1.3,0.7,2.1,2,3.8,2.1c5.5,0.2,10.8,1.8,16.1,2.9c4.9,1,4.9,1,3.8-3.9c-0.1-0.7-0.1-1.3,0.2-1.9c7.8-2.4,15.3-0.5,22.8,1.7
		c1.5,0.5,2.8,1.9,4.5,0.4c2.8-2.8,4.1-6,2.4-9.9c0-4.8,2.6-6.5,8.3-5.4c-3.3-2.5-6-4.4-4.5-8c1.5-3.4,4.1-1.4,6.9-1.2
		c-5.5-3.7-4.6-8-2.1-12.5c2.2-4,4.1-4.4,7.4-1.3c5,4.6,9.6,9.6,14,14.9c9.2,11,17.4,22.7,24.1,35.4c0.7,1.3,1.6,2.5,1.6,4.1
		c-0.9,1.6-0.5,3.1,0.3,4.7c4.1,8.5,7.6,17.2,11,26c0.7,1.7,1.7,2.7,3.3,3.3c1.7,1.9,1.4,4.4,1.7,6.6c0.7,4.8,2.5,9.2,3.8,13.7
		c-3.4,1.5-4.3,4.1-3.2,7.5c-0.3,2.7,1.8,5.7-0.8,8.2c-2,1.3-1.4,3.2-1.2,5c2.2,16.3,3.5,32.7,4.1,49.1c0.1,1.7,0.6,2.8,2.2,3.4
		c2.3,2,1.6,4.8,1.7,7.3c0.2,3.1-0.5,6.2,0.5,9.1c0.9,2.4,4.4-0.5,5.1,2.3c0.8,3.7,0.6,7.4,0.1,11.1c-0.8,2.3-0.6,4.6-0.6,6.9
		c0,21.6,0,43.2,0,64.8c0,6.8,0.4,13.6-1.1,20.3c0.5-1.3-0.1-2.8,0.5-4.1c2.1-0.9,2.1,1,2.3,2c0.9,7.2-0.7,14.2-1.2,21.3
		c-0.1,1.2-0.9,2.3-2.1,2.5c-1.6,0.2-2.3-1-2.8-2.3c-0.9-2.5-1.5-5.1-2.4-7.6c-0.6-1.7-1-4.1-3.1-4c-2.4,0.1-1.9,2.7-2.2,4.4
		c-1.6,9.5-3.5,18.9-7.6,27.8c-0.6,1.4-1.2,2.8-2,4c-0.9,1.4-1.7,3.2-3.7,2.6c-1.7-0.4-2-2.1-2.3-3.6c-1.3-7.9-3.1-15.6-6.9-23.1
		c-0.3,1.6,1.1,2.6,0.7,3.9c-1.8,1.1-2.2,3-3.2,4.6c-0.9,1.5-1.4,3.4-3.6,3.5c-2.3-0.2-2.7,1.7-3.4,3.1c-1.7,3.1-3.6,6-5.8,8.7
		c-1.3,1.6-2.7,3.1-5.1,2.3c-2-0.7-2.5-2.5-2.7-4.4c-2.9-23.3-9.4-45.6-16.6-67.8c-3.2-9.8-6.8-19.5-11.5-28.7
		c-2.4-4.8-0.5-9.5-0.7-14.2c-0.1-1.9,2.3-2.7,4.1-3.1c7.8-1.9,15.6-3.6,23.1-6.3c3.7-1.3,5.2-0.1,5,4.3c-0.5,16.3-1.1,32.7-10.8,47
		c3-1.8,4.6-4.9,5.8-8c3.1-8.1,4.8-16.6,5.5-25.3c1.1-13.1,1.2-26.3,0.9-39.4c-0.3-11.3-1.6-22.6-2.3-33.8c-0.6-8.8-2.6-17.4-4.5-26
		c0.4,5.4,1,10.8,1.8,16.1c0.3,2.3,0.7,4.6,0.9,6.9c0.1,1.5,0.5,3.2-1.5,3.8c-1.7,0.5-2.8-0.6-3.8-1.8c-1.5-1.8-2.9-3.7-3.9-5.8
		c-3.3-6.9-8.3-12.9-10.7-20.3c-0.2-0.6-0.6-1.2-1.5-1.3c-1.5,1.4-0.8,3.4-1.3,5.1c-0.6,2.3-0.7,4.6-1.6,6.8
		c-0.8,2.1-1.8,4.2-4.5,3.9c-2.8-0.4-3.1-2.7-3.1-5c-0.1-5.7-1.2-11.3-2.1-16.8c-0.3-1.6-0.2-3.3-1.9-5c-0.6,7.1-1.1,13.9-2.4,20.5
		c-3,15.4-7.1,30.4-14.9,44.3c-3.6,6.5-5.8,6.8-10.4,1c-5-6.4-9.3-13.4-13.8-20.2c-1.8-2.6-3.3-4-6.2-1.1c-2.9,2.9-4.4,0.7-5.2-2
		c-2.2-7.7-3.4-15.6-4.2-23.6c-1-9.6-1.6-19.2-0.4-28.8c-1.2,3.9-2,7.9-1.9,11.9c0.2,10.3-3.7,18.9-10.5,26.6
		c-2.4,2.7-2.8,7-5.9,9.6c-1.3,1.1-2.3,2.4-3.6,3.5c-3.8,3.1-7.1,2.4-7.5-2.3c-0.7-7.1-3.3-14.1-1.2-21.4c3.2-2.2,7-2.8,10.6-3.8
		c0.9-0.2,1.8-0.1,2.7-0.4c1.7-1.9,1.6-4.3,1.7-6.5c0.1-4.1-0.1-8.2,0.8-12.3c0.3-1.6,1-3.8-1.9-4.2c-0.5-0.1-1-0.2-1.5-0.3
		c-9.2-2.8-8.8-2.7-9.9,6.6c-0.8,6.7,0.2,13.6-1.8,20.2c-2.7,1-2.5-1.3-2.6-2.6c-0.3-5.9,0-11.9,0.3-17.9
		c1.6,23.4-3.4,44.5-22.5,61.5c7.1-2.1,7.7-1.6,7.9,4.9c0.1,3.6-1,6.9-1.6,10.3c-2.4,12.9,1,19.1,13,23.9c4.9,2,6.1,4.1,4.1,9.4
		c-4.3,11.6-11,21.6-21,29.2c-5.6,4.2-6.9,3.6-7.7-3.2c0-0.3-0.3-0.6-0.8-1c-2.4,0.5-3.6,3-5.7,4.2c-1.3,0.7-2.6,1.7-4.1,0.6
		c-1.3-0.9-1.2-2.4-0.9-3.7c2.4-10.9,4.6-21.8,6.2-32.9c0.2-1.1,0.4-2.9,2.4-1.9c0.9,1.5,0.5,3.1,0.4,4.7c0-10,2-19.8,2.6-29.4
		c-0.7,1.6-0.2,3.6-0.4,5.6c-0.2,1.4,0.2,3.2-2.2,2.9c-2.2-4.1-0.9-8.5-1.1-12.7c-0.1-3.2-0.8-5.8-3-8.6c-3.7-4.5-2.9-10.3-0.7-15.1
		c1.6-3.7,1.8-6.8,1-10.5c-1-4.8-2.4-9.7-0.3-14.6c2.8-2.9,6.9-1.2,10-2.9c1.1-0.2,2.1,0,3.2,0.2c5.9,0.3,6.8-0.5,6.9-6.2
		c0.1-6.5-0.1-12.9,0.1-19.4c0.1-3.9-1.2-6.1-5.5-5.4c-1.1,0-2.1-0.4-3.2-0.3c-7.8-0.1-7.7-0.1-8.8,7.6c-1,6.4-0.4,12.9-0.6,19.3
		c-0.1,2.3,0.3,4.7-1.6,6.5c-2.2-0.4-2.2-2.3-2.2-3.9c-0.5-16.4,1.8-32.5,5.6-48.4C145.3,169.3,145.8,169,146.2,168.7z"/>
	<path class="st2" d="M178.1,219.8c0.5,3.7-2,7.9,2.1,10.9c-2.2,3.5-0.9,7-0.2,10.6c0.8,4,2.2,4.6,5.1,2c2.2-2,4.6-4,6.2-6.4
		c2.2-3.3,3.3-7,6.4-10.1c3-3,3.9-8,5.9-12c1.1-2.2,1.6-4.4,1.3-6.7c-0.6-5.4,1-10.6,1-15.9c0-1.6,0.7-3.4,2.3-3.4
		c2.2,0,1.6,2.1,1.7,3.5c0.1,4.3-1.2,8.5-1.1,12.9c0.4,13.1,1.8,26.1,5.1,38.8c0.3,1.3,0.3,3,1.7,3.2c1.2,0.2,1.8-1.3,2.4-2.3
		c2.2-3.8,4-2.9,6.1,0.3c5,7.6,10.1,15.2,15.4,22.7c3.5,4.9,4.5,4.7,7.4-0.6c5.6-10.3,10-21.1,12.5-32.5c2.2-10.2,4.9-20.4,4.6-31.1
		c0-1.6-0.4-3.9,1.6-4.2c2.8-0.4,2.3,2.3,2.6,3.9c1.4,6.8,2.8,13.6,2.8,20.6c0,1.6-0.4,3.7,1.8,4.1c2.5,0.5,2.9-1.6,3.4-3.4
		c1-3.7,2-7.4,1.8-11.2c0-1.4,0.1-2.9,1.8-3.1c1.6-0.3,2.5,1,2.9,2.3c1.2,4.2,3.1,8.1,5.3,11.8c3.2,5.3,6.4,10.5,9.6,15.8
		c0.5,0.8,1,1.9,2.3,1.5c1.4-0.5,0.5-1.6,0.4-2.5c-1-7.1-2.1-14.2-3.1-21.3c-0.1-0.5-0.2-1-0.1-1.5c0.3-1.6-1-4.3,1.6-4.5
		c1.7-0.2,2.1,2.3,2.4,3.9c2.9,15.5,4.2,31.2,5.3,46.9c1,13.6,1,27.2,0.6,40.7c-0.3,12.2-1.4,24.5-5.8,36.1
		c-1.4,3.6-3.3,6.9-5.8,9.8c-1.1,1.3-2.5,2.5-4.2,0.9c-1.7-1.6,0.1-2.7,1-3.7c5.2-5,6.7-11.7,8.1-18.4c2-9.1,3-18.3,2.9-27.6
		c0-2.7-0.7-3.7-3.4-2.6c-7.5,3.2-15.5,4.7-23.4,6.5c-2.3,0.5-2.7,1.5-3.1,4.4c-2,13.1,6.8,22.3,10.3,33.4
		c6.9,22.2,14,44.2,17.7,67.2c0.4,2.8,1.3,5.5,1,8.4c-0.1,1.2,0.4,2.4,1.6,2.8c1.5,0.6,2.4-0.4,3.3-1.5c2.8-3.7,5.5-7.5,7.4-11.8
		c0.9-1.9,2.1-4.2,3.7-0.3c-0.1,4.5-3.5,7.6-5.2,11.4c-1.9,4.2-5.7,7-8,10.8c-1.1,3.7,0,7.6-0.8,11.4c-0.3,1.2-1.1,1.8-2,2.4l0,0
		c-4.4,0.6-4.1-2.9-4.3-5.4c-0.6-5.8,0.1-11.6-0.6-17.4C294.7,400.3,290,381,284,362c-0.2-2.4-0.6-4.7-2-6.8
		c-4.6-12.1-8.3-24.6-14.7-36c-0.9-1.7-1-3.5-0.5-5.3c0.7-2.8-0.6-4.4-3.1-5.3c-7.8-2.6-15.8-3.5-23.7-4.1c-1,1.5-0.2,2.3,0.4,3
		c8.2,9.9,4.9,25.3-2.6,33c-0.7,0.7-1.4,1.4-2.1,2.2c-2.9,3.2-2.7,3.9,1.6,5.1c13.5,3.8,27.2,6.3,41.1,8c1.2,0.1,2.3,0.2,3.4,0.7
		c1.6,1.4,2.4,3,0.5,4.8c-0.5,0.3-1,0.3-1.5-0.1c-8.4-1.3-16.7-2.8-25.1-4c-6.6-1-12.8-3.7-19.5-3.9c-0.9,0.6-1.7,0.2-2.6,0
		c-0.6-0.1-1.5-0.7-1.7-0.3c-0.5,1.3,0.9,1.7,1.4,2.6c2.7,1.5,2.1,4,2,6.3c-0.3,0.4-0.6,0.7-1.1,0.8c-3.6-0.8-4.4-4.2-6.1-6.7
		c-3.8-5.5-3.7-5.5-9.9-3.4c-0.8,0.3-1.6,0.6-2.3,0.9c-1.5,0.8-2.9,1.5-4.7,1c-1.9-0.4-3.8-1-3.6-3.3c0.2-2.2,2.3-2.5,4.1-3
		c0.6-0.2-0.2,0.1,0.5-0.1c7-1.5,7-1.5,2.9-7.3c-1-2.6,0.2-3.8,2.7-3.9c0.4,0.2,0.8,0.5,1.2,0.9c6.2,6.5,9.8,6.2,15-1.3
		c1.6-2.3,2.3-5.1,4.1-7.3c3.8-8.8,1.2-17.7-6-20.7c-4.6-1.2-9.1-1.1-13.7-0.2c-2.7,0.5-4,2-4,4.7c0,4.3-0.1,8.6,1.3,12.7
		c0.2,0.8,0.1,1.6-0.2,2.4c-1.4,1.7-2.7,3.6-5,1.2c-1.6-2.5-1.5-5.4-2.1-8.1c-0.6-2.8-0.6-5.6-0.6-8.5c-5.8,1.8-8.6,7.6-14.1,9.4
		c-2.6-0.4-3.5-1.8-2.2-4.2c0.2-0.3,0.4-0.6,0.5-0.9c4-8.1,3.4-9.3-5.4-10.7c-2.8-0.4-4.4,0.4-5.3,3.1
		c-4.5,12.9-12.2,23.6-22.7,32.2c-2.5,2-3.2,4.5-3.1,7.5c0,8.2-0.1,16.3,0,24.5c0.2,16.3-1.1,32.6-2.5,48.8
		c-0.1,0.8-0.4,1.6,0.6,2.6c2.8-2.1,4.5-5.2,6.8-7.7c1.2-1.4,2.2-3,3.4-4.3c1.7-2,3.1-5,6.3-3.8c3.2,1.2,3.2,4.3,2.7,7.3
		c-0.6,3.8-0.1,7.5-0.9,12.2c5.3-4.3,8.1-8.7,9-14.4c2.6-17,5.8-33.8,10.1-50.4c0.8-3.1,0.9-6.8,4.6-8.4c5,0.4,6.4,1.9,5.7,6.9
		c-0.8,6.1-2.4,12-3.6,18c-3.8,18.4-6.4,36.9-8,55.6c-0.3,5.8-5,6.9-9.2,8.6c-3-2.8-0.9-6.2-0.9-9.2c0-1.9,0.9-3.8-0.1-6.2
		c-2.6,2.1-4.9,4.2-7.3,6.1c-1.3,1-2.7,2.3-4.5,1.2c-1.8-1.1-1.2-2.8-1-4.5c0.6-4.7,1.2-9.5,1.8-14.5c-2.8,0.2-3.4,2.1-4.4,3.4
		c-4.6,5.5-9,11.2-15.3,14.9c-0.9,0.5-1.8,1.2-2.8,0.6c-0.9-0.6-0.3-1.5-0.1-2.2c4.7-18.8,4.4-37.9,4.4-57.1c0-9.3-0.1-18.7,0-28
		c0-2.6-0.3-4.3-3.5-3.2c-1,0.4-2.5,0.4-2.8-0.4c-1.8-5.7-4.7-2.1-7.3-1c-2.6,1.1-5.2,2.3-3.6-2.5c0.3-0.9,0.4-2.2-0.7-2.7
		c-4.7-2-3.1-5.4-2.2-8.8c6.5-24.3,8.5-49.1,7.8-74.2c-0.3-9.4,1.4-19,0.9-28.4c-1.1-19.3,1-38.2,4.3-57c0.6-3.6,0.8-3.6,3.2-1.8
		c-0.1,7.3-2.5,14.1-4,21.1c-1.9,8.7-1.2,17.8-1.2,26.7c0,1.8-1,4,1.2,5.4l0,0c-0.9,6.9,1,13.4,2.1,20.1c0.2,1.1,1.1,2.4,0,3.2
		c-4.4,3.3-2.9,8-3.1,12.4c-0.1,2.3,0,4.1,2.7,5c2.1,0.7,2.3,2.9,2.3,5.1c-0.1,5.5,0,10.9,0,16.4c2,5.5,1.1,10.7-1.1,15.9
		c-1.7,8.7-3.3,17.5-5,26.2c-0.6,3.1-1.4,6.1-2,9.2c-0.2,0.9-1,2,0,2.8c1.2,0.8,2.2-0.2,3.1-0.9c1.4-1.2,2.6-2.6,4-3.8
		c1-0.9,1.8-2.8,3.6-1.9c1.6,0.8,1.1,2.6,1.3,4c0.3,1.4-1.8,3.1,0,4c1.8,1,3.1-1,4.3-1.9c10.5-7.9,17.7-18.2,21.8-30.7
		c1.2-3.6,0.1-5.1-3.4-6.1c-12-3.5-17.2-12.3-14.5-24.5c1.2-5.5,2.7-10.9,1.3-16.6c-2.6,0.2-4.9,5.2-7,2.1c-1.8-2.5,2.6-4.4,4.4-6.4
		c7.9-8.4,12.8-18.4,16.6-29.1c0.6-1.7,0.4-3.6,0.4-5.4c-0.2-8.2,0.9-16.2,2.1-24.2c0.1-0.8,0.2-1.7,2.1-2.1
		c-1.4,6.9-1.2,13.6-1.2,20.2C177,216.6,176.1,218.6,178.1,219.8L178.1,219.8z"/>
	<path class="st1" d="M304,428c2.7-3.3,5.4-6.7,8.1-10c5.5-0.7,9.8-3.4,13.5-7.3c0.7-0.8,0.9-2.3,2.6-1.6c2.2,4,0.6,8.5,2,12.6
		c0.5,1.4,0.2,3.3,1.9,3.8c1.9,0.5,3.1-1,4-2.4c4.5-6.6,6.6-14.1,8.6-21.7c0.9-3.4,1.4-6.8,2.5-10.2c0.4-1.2,1.2-2.2,2.5-2.2
		c1,0,1.6,1.1,2,2.1c1.9,4.5,2.6,9.3,3.7,14c0.2,1.1,0.2,2.7,1.6,2.8c1.8,0.2,1.8-1.6,2.2-2.8c0.7-2.4,0.4-5,0.7-7.4
		c2-19.7-0.2-39.5,0.1-59.2c0-2.2-1.1-5.1,2.1-6.4c-0.1,8.1-0.2,16.1-0.2,24.2c0,1.2-0.7,2.9,0.7,3.6c1.7,1,2.4-1.2,3.7-1.7
		c4.3-0.2,6.7-3.5,9.4-6c7.7-7.2,15.7-13.9,23.8-20.6c1.3-1.1,2.6-2.6,4.4-1.7c1.7,0.9,1.7,2.8,1.6,4.5c-0.8,9-2.9,17.7-5.2,26.4
		c-0.8,3.2-3.2,3.5-5.9,2c-1.9-1-3.3-2.8-5.5-3.5c0,0.8,0.7,1.1,1.1,1.4c8.6,6.7,9.6,11.7,4.5,21.2c-1.4,2.5-2.9,2.8-5.2,1.3
		c-3.3-2-5.5-5.3-10.2-7.1c3.3,3.2,6.4,5,9.1,7.4c3,2.8,4,5.9,2.4,9.9c-4.5,11.9-9.9,23.3-18.4,33c-1,1.1-2.6,2.3-1.6,3.8
		c1.2,1.8,3.1,0.5,4.6,0c6.2-2,12.4-3.9,18.7-5.3c1.5-0.4,3.4-1.3,4.6,0.5c1.1,1.7-0.3,3.2-1.2,4.5c-7.3,10.8-16.8,18.4-29.9,20.9
		c-6,1.1-11.5-0.9-17.1-2.7c-1.6-0.5-3.2-2.2-4.9-0.1c-14.6,0.5-28.8-1.7-43-4.9c0.3-0.7,0.7-1.4,1-2.1
		C304.4,436.8,302.6,432.3,304,428z"/>
	<path class="st3" d="M361.8,332c-1.9,9.2-1.4,18.5-0.5,27.6c0.7,7.5,1,14.9,0.4,22.3c-0.4,5.5-0.5,10.9-0.7,16.3
		c0,0.8,0.1,1.7,0,2.5c-0.5,3.6,0.3,9.2-4,9.6c-4.6,0.4-2.9-5.4-3.8-8.3c-1.2-4.1-2.1-8.3-3.8-13c-2.3,3.9-2.4,7.7-3.2,11.1
		c-1.7,7.5-4.1,14.6-7.6,21.5c-1,2-2.3,3.7-4,5c-3,2.4-4.8,1.4-5.8-2.4c-1.3-5.1-0.2-10.4-2-15.3c-3.2-2.3-3.8-5.4-2.9-9
		c0.2-1.7-1.4-2.6-1.9-3.9c-0.5-1.3-2.1-2.9,0-3.8c1.8-0.8,2.6,1,3.2,2.4c2.3,5.7,4.6,11.4,5.7,17.5c0.3,1.6,0.7,3.2,1,4.9
		c0.3,1.5-0.7,4,1.5,4.2c1.8,0.2,2-2.3,2.8-3.7c4.9-9.9,7.4-20.5,8.7-31.4c0.3-2.2,0.4-5,2.6-5.4c2.6-0.5,3.9,2.2,4.7,4.3
		c1.1,3.1,1.9,6.3,2.7,9.5c0.2,0.8,0.4,1.8,1.4,1.8c1.3,0,1.5-1.1,1.5-2.1c-0.2-7.8,2-15.5,0.9-23.3c-1.3-1.8-0.8-3.8-0.8-5.8
		c0-10.1-0.1-20.3,0-30.4c0.2-15.5-0.9-30.9-0.5-46.3c0-1.6-0.3-3.3,0.3-4.9c0-4.2,0-8.4,0-12.5c-1.6-1.8-1.4-4-1.4-6.2
		c0.4-26.6-1.4-53-6.9-79.1c-0.3-1.4-0.7-2.9,0.3-4.3c-3.7-6.6-4.1-14.1-5.8-21.2c-1.1-0.2-1.6-1-2-2c-3.6-9.7-7.5-19.3-12-28.5
		c-0.5-1-1-2.1-0.2-3.2c-10.4-19.8-23.3-37.7-39.5-53.3c-1.3-1.2-2.4-4.5-5-1.5c-2.5,2.8-3.6,8.7-1.8,10.3c0.7,0.7,1.6,1.1,2.4,1.8
		c1.1,1,1.6,2.4,0.8,3.6c-1.1,1.6-2.3,0.5-3.3-0.3c-1.1-0.9-2.4-2.5-3.6-0.5c-1.1,1.8-1.3,3.8,1,5.1c0.6,0.3,1.2,0.6,1.7,1
		c1,0.8,2.7,1.5,1.9,3c-0.6,1.2-2.1,0.7-3.1,0.3c-4.8-2-5.2,1.7-6,4.7c0.7,3.5-0.8,6.4-2.1,9.5c-0.9,2.5-0.9,5.7-4.9,1.6
		c-3.3-3.4-9-2.6-13.6-3.3c-3.3-0.4-6.6,0-9.9,0.1c-1,1-2.3,1.3-3.6,1.2c-6.6-0.5-13.3,1.4-19.9-0.3c-7.1,0.9-14.1,2.4-21,4.4
		c-2.4,0.7-3.8,0.3-4.2-2.3c-0.7-2.5-3.5-1.5-4.8-3c-16.6-5.4-33.5-9.5-50.6-12.7c-1.5-0.3-3-0.3-4.4-0.4c-8.2-0.9-8.3-0.9-7.1,7.2
		c1.5,10.5,3.3,20.9,5,31.3c0.5,3.5,1.9,5.8,5.9,5.5c1,4.1-2.4,6.4-4.2,9c-3.1,4.4-3.9,8.3,0,12.5c0.9,1,11.8,8.4,10.3,9.5
		c-2.1,1.4-11.9-6.9-12.8-8c-3.6-4.4-4.9-9.1-0.9-14c1.5-1.8,1.2-3.7,0.6-5.7c-4.2-15.6-6-31.6-8-47.6c-0.5-3.9,0.6-5.4,4.8-4.7
		c24.1,4,48,9.1,70.9,17.8c2.1,0.8,4.1,0.7,6.3,0.2c20-4.5,40.1-6,60.4-1.4c2.1,0.5,3.2-0.1,3.5-2.2c0.3-1.5,0.9-2.9,0.9-4.4
		c0.1-1.4,1.9-3,0.1-4c-1.4-0.8-2.3,0.9-3.3,1.6c-0.8,0.5-1.6,1.5-2.5,0.3c-0.7-1-0.1-1.9,0.7-2.6c1.4-1.1,2.9-2.2,4.4-3.2
		c0.8-0.6,2.1-0.7,2.6-1.4c1.6-2.1,3.5-5.2,1.7-7.1c-1.7-1.8-4.1,0.7-5.7,2.3c-0.7,0.7-1.1,1.6-1.7,2.5c-0.5,0.7-1,1.5-1.9,0.9
		c-0.7-0.5-0.7-1.4-0.4-2.3c1.6-4,4.7-6.7,8.9-7c2.9-0.2,3.9-1.7,4.8-4c6.2-15,5-14.3,15.7-3.2c26.4,27.3,45.3,59,54,96.3
		c2.1,9,6.5,17.3,7.8,26.6c3.4,23.5,3.7,47.1,4.1,70.7C361.6,288.4,361.7,310.2,361.8,332z"/>
	<path class="st4" d="M215,352c3.6-0.3,7.2-3.9,10.1-2.2c2.8,1.6,4.1,5.7,6.1,8.7c0.8,1.2,1.7,2.4,2.6,3.5c6.1,5.9,10,13.7,15.6,20
		c4.2,4.7,8.6,9.2,13.4,13.4c1.2,1.1,2.4,2.4,4.3,1.9c1.5,1,2.9,1.9,4.8,1.8c1.4,1.2,1.5,2.9,1.7,4.5c1,8.4,1.8,16.7,1.9,25.1
		c0,1.1,0.1,2.3-0.8,3.3c-2.7,0.3-4.9,1.5-6.6,3.6c-6.6,1.3-12.3,4.9-18.5,7.2c-17.9,6.3-36.2,11.3-54.9,14.3c-0.3,0-0.7,0-1,0
		c-10.6,0.5-10.6,0.5-11.9-10.2c-0.2-1.3-0.9-2-1.6-2.9c2.1-1.7,3.1-4.9,6.8-4.5c1.2,0.1,0.6-2.3,1.1-3.5c2-0.3,1.7,2.9,3.8,2.5
		c14.9,1,28.6-3.7,42.2-8.8c7.2-2.7,14.3-5.4,21.1-9c2.1-1.1,4.3-1.6,7.3-1.8c-9.8-8.2-17.9-17.3-25.6-26.8
		c-8.4-10.6-15.2-22.2-21.4-34.2C214.7,356.2,213.7,354.2,215,352z"/>
	<path class="st3" d="M345,447.9c-1.6-3.7,0.8-3.4,2.7-2.4c3,1.6,6.1,2.7,9.3,3.4c16.2,3.2,27.1-5.6,36.8-16.7
		c1.4-1.6,2.4-3.6,3.6-5.4c0.2-0.2,0.1-0.6,0.2-1.5c-7.9,1.5-15.4,3.9-22.9,6.2c-2,0.6-4.4,2.9-6.2,0.1c-1.7-2.6,0.7-4.2,2.3-5.9
		c8.9-10,14.2-22,18.9-34.3c0.9-2.2,0.1-4.1-1.6-5.9c-3.1-3.1-6.7-5.4-10.2-8c-0.7-0.6-2-0.9-1.4-2.2c0.7-1.4,1.8-1,3-0.6
		c4.1,1.4,6.5,5.1,9.9,7.4c2.2,1.5,3.1,1.6,3.7-1.1c0.1-0.6,0.5-1.2,0.7-1.9c3.7-11.1,3.7-11.1-5.8-18.2c-1.2-0.9-3.3-1.7-2.4-3.2
		c1.1-1.8,2.8-0.4,4.3,0.5c8.2,5,8,5,10.3-4.5c1.6-6.6,3-13.2,3.7-20c0.1-1.1,0.5-2.5-0.7-3.2c-1.4-0.7-2,0.8-2.8,1.5
		c-10,8.7-20,17.4-30.1,26c-1.3,1.1-2.9,3.9-4.3,0c9.8-10.2,20.7-19.1,31.5-28.2c2.3-1.9,4.5-4,6.7-5.9c0.9-0.8,1.4-2.7,3.1-2
		c1.8,0.8,1.1,2.6,1,4c-0.5,8.3-1.1,16.8-3.7,24.6c-3.8,11.2-3.4,20.6,5.5,29.6c5.1,5.1,7.5,12.4,9.4,19.6c0.5,1.7,1.1,3.4-0.2,5.3
		c-2-0.8-1.8-2.6-2.2-4.1c-2.7-10-7.6-18.7-14-26.7c-0.7-0.9-1.3-2.2-2.6-2.1c-1.9,0.2-1.2,2.1-1.7,3.2c-0.5,1.2-0.8,2.5-1.3,3.7
		c-2.6,5.6-3,11,1.7,15.9c0.7,1.3,0.7,2.2-1.2,2.1c-1.8-1.3-2-3.8-4.4-4.9c-2.7,6-5.4,12-8.1,17.9c-2.7,5.9-6.6,11.1-9.7,17.4
		c8.2-2.4,16.3-4.7,24.5-7.1c1.1-0.3,2.1-1.2,3.2-0.2c1.1,1.1,0.3,2.1-0.1,3.2c-5.6,16.4-25.7,30.3-42.9,29.5
		C354.9,452.7,349.7,451.1,345,447.9z"/>
	<path class="st5" d="M280.9,361.1c0.4,0,0.8-0.1,1.1-0.1c1-0.2,2-1.1,3,0c5.6,15.6,9,31.7,12,47.9c1.7,9.5,2.3,19,2,28.6
		c-0.1,2.3,0,4.8,3,5.5c-1,2.5-0.3,6.8-3.9,6.5c-3.4-0.2-2.8-4.1-3.1-6.9C292.1,415.2,289.2,387.6,280.9,361.1z"/>
	<path class="st6" d="M274.8,432.1c-0.9-11-1.9-22-2.8-32.9c0.1-10.3-1.7-20.5-2.3-30.8c-0.1-1-0.3-2-0.3-3c0-0.9,0.3-1.7,1.3-1.9
		c1.4-0.3,1.6,0.9,1.7,1.8c0.5,4.6,1.1,9.2,1.5,13.9c1.7,20.4,3.4,40.7,5.1,61.1c0.1,0.8,0.2,1.7,0.2,2.5c0,1,0.2,2.2-1.1,2.5
		c-1.6,0.3-1.9-1-2-2.2C275.7,439.3,275.9,435.7,274.8,432.1z"/>
	<path class="st7" d="M148,130c-4.7-8-9.3-16-14.7-23.6c-0.8-1.1-2-2.7,0-3.8c1.6-0.9,2.5,0.5,3.2,1.5
		c11.2,16.1,20.5,33.2,26.3,52.1c0.4,1.3,1.8,3.3-0.4,4.4c-1.2,0.6-1.4-1.1-2.2-1.6C157.1,148.9,153.3,139.1,148,130z"/>
	<path class="st8" d="M194.8,457.2c4.1-3.3,9.4-2.8,14.2-3.9c19.2-4.4,38-9.7,55.8-18.2c1.2-0.6,2.7-2,3.5,0.6
		c-10.8,6.7-23,10.1-35,13.9c-11,3.5-22.4,6-33.8,8.1C197.9,458,196.2,458.7,194.8,457.2z"/>
	<path class="st9" d="M267.1,397.4c-2.7,3.1-4.1-0.2-5.4-1.4c-8-7-15.1-14.8-21.1-23.7c-2.3-3.4-5.3-6.4-6.8-10.3
		c0.4,0,0.8-0.1,1.1-0.1c0.3-0.6,0.7-0.6,1.1,0c6.5,8,11.7,17,19,24.5C258.8,390.4,262.9,394,267.1,397.4z"/>
	<path class="st10" d="M397.8,397.1c0.9-0.4,1-1.3,1.2-2.1c3,3.6,4.8,7.9,6.4,12.2c0.4,1.1,1.2,2.4-0.2,3c-1.6,0.7-1.8-0.9-2.2-1.9
		C401.2,404.6,399.5,400.8,397.8,397.1z"/>
	<path class="st11" d="M263.3,360.6c2.6,8.4,4.3,16.8,3.1,25.6C265.4,377.7,264.3,369.1,263.3,360.6z"/>
	<path class="st5" d="M236,362c-0.4,0-0.7,0-1.1,0c0.6-2.8-0.6-4.8-2.9-6.3c0.7-1.2,0.6-2.8,1.9-3.7c0.7,0.4,1.5,0.7,2.2,1.1
		C236.2,356.1,236.1,359,236,362z"/>
	<path class="st12" d="M291.1,118.3c2.2-3.2,5.7-4.9,8.8-7c2.1-1.4,3.6-0.9,5,1c1.4,0.6,1.9,1.8,2.4,3c5.3,12.1,10.2,24.4,14.3,37
		c0.6,1.9,1.4,3.8,0.5,5.8c0,1.3-0.3,2.3-1.9,2.2c-5.1-0.4-10.2-0.1-15.3-1.1c-2.7-0.5-2.3-3-3.8-4c-4.2-2-5.4-6.5-8-9.8
		c-3.5-4.6-6.2-9.7-7.8-15.4C283.3,122.9,284.1,121.2,291.1,118.3z"/>
	<path class="st3" d="M319,339.8c-5.4,5.1-9.9,9.4-15.5,12.4c-1.4,0.8-3.4,2.9-4.7,0.7c-1.4-2.4,1.3-3.3,2.9-4.2
		c6.2-3.4,11.1-8.4,15.2-14.1c0.7-1,1.1-2.6,2.8-2.4c1.9,0.2,2,1.9,2.5,3.3c1.3,3.6,0.4,7.3,0.7,10.9c0.1,1.1-0.5,2.6,0.9,3.1
		c1.3,0.5,2-0.9,2.8-1.7c7.3-6.5,10.9-14.8,12.3-24.3c2.2-14.5,2.1-29.1,1.9-43.7c-0.1-4.4-0.7-8.9-1.3-13.3
		c-0.2-1.5-0.6-2.8,1.2-3.1c1.4-0.2,1.9,1,2.1,2.3c0.7,4.9,1.8,9.8,1.9,14.7c0.4,16.1,0.4,32.2-3,48c-2.3,10.9-8.1,19.8-17.4,26.2
		c-3.6,2.5-5.4,1.4-5.5-3.1C318.9,348.1,319,344.6,319,339.8z"/>
	<path class="st13" d="M349.9,181.2c7.3,28.6,8.5,57.8,7.9,87.1c0,0.8,0,1.7,0,2.5c-1.2,2-2.6,3-4.7,1.2c-0.3-0.4-0.6-0.8-0.6-1.3
		c0.6-9.3-1-18.5-0.9-27.8c0.1-13.9-1.5-27.7-3.7-41.4c-0.8-4.9-0.3-9.9-1.8-14.7C345,180.2,345.3,179.7,349.9,181.2z"/>
	<path class="st14" d="M142.1,221.9c-1.1-10.8,0.1-21.5,1.1-32.2c0.2-2.1,1.1-2.9,3.1-2.8c2.5,0.1,5,0.1,7.4,0.2
		c2.7,3.2,0.7,6.8,0.4,10c-0.6,6.1-0.8,12.2-0.9,18.3c0,1.7,0,3.3-1.3,4.6C149.3,223.6,145.4,221.1,142.1,221.9
		C142.1,221.9,142.1,221.9,142.1,221.9z"/>
	<path class="st15" d="M189,217c-3.6,0.9-6.7,4.1-10.9,2.9c0,0,0,0,0,0c-0.9-9.2,0.6-18.2,1.1-27.3c0.2-3.1,1.9-4,4.7-3.4
		c2.5,0.5,5,1.3,7.1,2.8c0.4,0.5,1,1.1,0.9,1.7C191.3,201.5,192.5,209.5,189,217z"/>
	<path class="st7" d="M322,158c-4.8-15.6-11.1-30.6-17.2-45.8c-2.3-4.5-4.7-9-7-13.5c-2-4-4.1-8-6-12.1c-0.7-1.6-3.3-3.7-0.5-5
		c2.3-1.1,3.2,1.7,4,3.4c11.8,23.1,22.4,46.6,29.5,71.6c0.5,1.6,2,3.9-0.5,4.7C322.1,162.2,323.8,158.5,322,158z"/>
	<path class="st16" d="M156.2,188.1c5.5-1.8,7.3-0.7,7.2,4.4c-0.2,7.2-0.3,14.3-0.3,21.5c0,7.4-1.2,8.4-8.9,7
		c-2.5-6.1-0.6-12.4-0.3-18.5C153.9,197.7,153.8,192.6,156.2,188.1z"/>
	<path class="st17" d="M350.9,253.9c-2.4,2-3.1,0.6-3.2-1.7c-0.1-4.8-0.2-9.6-0.4-14.5c-0.4-12.7-2.2-25.2-3.6-37.7
		c-0.2-1.9-1.5-4.6,2.2-4.9c1.7,0.6,1.9,2,2.1,3.6c2.4,16.4,4.5,32.9,4,49.6C351.9,250.2,352.5,252.3,350.9,253.9z"/>
	<path class="st18" d="M170.9,205.3c0,4.2,0,8.3,0,12.5c0,2.1-0.3,4.2-3,4.3c-2.8,0.1-3.1-2-3.1-4.1c0.3-9,0.6-18,0.9-26.9
		c0.1-1.8,0.8-3.3,2.9-3.4c2.4,0,3.1,1.6,3.1,3.7c0,4.7,0,9.3,0,14C171.4,205.3,171.2,205.3,170.9,205.3z"/>
	<path class="st19" d="M291.1,118.3c-0.1,0.2-0.1,0.4-0.2,0.5c-6.6,5.8-6.8,6.5-3.3,15c3.3,7.9,9,14.2,13.3,21.4
		c-0.1,1.8-0.5,4.2-2.6,1.6c-6.2-7.9-12.7-15.6-15.4-25.6c-0.2-0.9-0.1-2.1-0.6-2.9c-1.1-1.8-3.6-3.4-2-5.6c2.1-2.9,5.3-4.9,8.6-6.4
		C290.4,115.6,290.9,117.1,291.1,118.3z"/>
	<path class="st20" d="M357.9,283.3c0.6,27.5,1.7,55,1,82.5c0,1.7,0,3.3,0,5c-1.5,2.5-0.2,5.6-1.9,9.2c0-32.2,0-63.3,0-94.5
		C357,284.6,357.1,283.8,357.9,283.3z"/>
	<path class="st21" d="M350.9,253.9c0.9-19-1.5-37.8-3.9-56.6c-0.1-0.8-0.7-1.5-1.1-2.2c2.3-2.7-1.1-5.6,0.3-8.3
		c3.6,11.7,4.6,23.8,5.9,35.8c1.7,16.4,1.2,32.9,1.1,49.4c-2.3-3.7-0.6-7.7-1.1-11.5C351.7,258.3,352.9,255.8,350.9,253.9z"/>
	<path class="st18" d="M324,400c1,3,1.9,6,2.9,9c-0.2,1.3,0.4,2.7-1,3.6c-3.8,2.7-7.8,5.1-12,7c-1.9,0.8-1.7-0.6-1.8-1.7
		c2-3.7,4-7.3,6-11c2.1-1.5,2.3-4.2,3.4-6.3C322.1,399.4,322.8,398.9,324,400z"/>
	<path class="st22" d="M221.2,109.1c7.8-1.2,15.6-2.3,23.5-0.9c1,2.3,4.4,4.5,2.7,6.9c-1.5,2.2-4.6,0-7-0.4c-5.4-0.9-10.8-2-16.2-3
		C222.7,111.4,220.6,111.9,221.2,109.1z"/>
	<path class="st23" d="M329.9,126.2c5.3,11,9.9,22.3,14.2,33.7c-1.4,2-2.2,0.8-2.7-0.6c-4.1-10.5-8.1-20.9-13.1-31
		C327.5,126.9,327.7,125.8,329.9,126.2z"/>
	<path class="st24" d="M156.2,188.1c-0.6,11-2.1,21.9-2.1,32.9c-0.7-0.3-1.3-0.7-2-1c-0.8-11.1,1-22,1.8-32.9
		C154.6,187.4,155.4,187.7,156.2,188.1z"/>
	<path class="st17" d="M192.1,192.1c1.5-1.3,3.1-1.5,2.9,0.9c-0.6,8-0.5,16.1-2.1,24c-0.1,0.4-1,0.6-1.6,0.8c-2.6-3-0.6-6.4-0.7-9.5
		C190.4,202.8,191.4,197.4,192.1,192.1z"/>
	<path class="st25" d="M145,300c0.4-5.3,0.7-10.6,1.1-15.9c2-3-0.1-7,2.3-9.8c1.3,6.2-0.5,27.1-3.4,34.1
		C145,304.6,145,302.3,145,300z"/>
	<path class="st26" d="M192.1,192.1c0.5,8.6-2,17.1-0.8,25.7c-0.8-0.3-1.5-0.5-2.3-0.8c0.7-8.3,1.4-16.7,2.1-25
		C191.4,192,191.7,192,192.1,192.1z"/>
	<path class="st27" d="M273.1,109.8c-0.6-3.4,1-6.4,2.1-9.5C277.8,102.3,276.7,107.4,273.1,109.8z"/>
	<path class="st28" d="M191.2,108.1c4.8-0.4,5.3-0.1,4.8,3C194.1,110.6,191.5,111.2,191.2,108.1z"/>
	<path class="st1" d="M195.4,355.8c-4.1,6.3-4.8,13.7-6.3,20.7c-2.9,13.9-5.3,27.9-8.1,41.9c-1,5.1-5,8.5-8.8,11.7
		c-1.8,1.6-2.6-0.3-2.1-1.6c1.7-4.5-0.1-9.3,1.4-13.8c0.7-2.1-0.2-4.2-2.1-5.1c-1.9-0.9-2.9,1.2-3.9,2.4c-3.5,4.8-7,9.6-11.2,13.9
		c-0.7,0.8-1.5,2.2-2.8,1.4c-1.2-0.7-0.8-2.1-0.6-3.2c3.5-25.3,3-50.7,2.9-76.1c0-3.7,1.4-5.9,4.2-8.3c10.1-8.2,17.7-18.5,21.6-31
		c1.4-4.4,3.2-5.8,7.4-3.9c0.6,0.3,1.6,0,1.9,0.4c1.8,2.3,7.6-1.8,6.6,3.7c-0.5,2.8,0.3,6.4-2.8,8.7c-2.3,1.7-1.6,3,1.1,3.4
		c-0.3,2.9-3,2.8-4.8,3.6c-2.5,0-3.3,1.8-3.9,3.8c-1.7,5.3-2.4,10.7-1.9,16.2c0.4,5.3,2.5,7.5,7.9,8.4
		C193,353.3,194.8,353.7,195.4,355.8z"/>
	<path class="st12" d="M195.4,355.8c-1.4-0.6-2.7-1.3-4.1-1.9c-2.7-3.3-0.2-4.8,2.3-5.8c4.9-2,9.9-3.8,14.7-6c2.6-0.3,4.3-4.2,7.6-2
		c0.4,0.5,0.9,1,1.2,1.6c0.8,1.9,4.6,2.3,3.4,4.4c-1.1,2-4.2,2.7-6.8,2.8c-0.7,0-1.3,0-2,0.1c-1.5,0.2-3.3,0.7-3.5,2
		c-0.3,2.4,1.9,2.1,3.5,2.3c5.6,7.2,9.8,15.3,13.4,23.6c-0.5,3.6-0.9,7.3-0.7,10.9c-0.2,8,0.3,16-0.3,24c-1.7,6.5,0,13.3-1.1,19.9
		c-1,2.8-3.5,3.3-5.9,3.9c-7.2,1.8-14.5,3.2-22,3.5c-1.5,0.1-3-0.1-4.2,1c-3.4,0.5-1.4-2.8-2.7-3.8c1.1-24.9,6-49.3,11.6-73.5
		C200.8,358.5,200.5,355.7,195.4,355.8z"/>
	<path class="st12" d="M211.2,247.9c0.4,0.9,0.8,1.8,1.2,2.7c0.7,1.7,1.5,3.4,3.8,3.4c2.1,0,2.5-1.9,3.3-3.3c0.5-1,0.7-2.3,2.2-2.7
		c5.4,7.8,10.9,15.7,16.4,23.6c0.9,1.4,2,2.6,3.1,3.9c2,2.5,3.8,3,5.6-0.4c1.9-3.7,4.1-7.2,6-10.9c1.2-2.2,1.7-6,5-1.5
		c0.3,0.4,1.6,0.2,2.4,0.2c4,3,4,4-0.1,6.8c-1.8,0-3.3,0.1-3,2.7c1.6,12.7,3.7,19.3,15.5,22.7c1.5,1.4,2.3,2.8,0.2,4.3
		c-7.1,1.7-14.1,2.1-21.4,1.5c-14.2-1.2-28.5-3.9-42.7,0.9c-4.1,1.4-8.4-0.5-12.7-0.9c-1.1-0.1-2.2-0.5-3.4-0.6
		c-1.3-1.2-1.5-2.6-0.2-3.9c14.9-1.9,20.6-7.8,21.8-22.8c0.3-3,0.2-6,0.1-9c0-1.4-0.3-2.8,1.8-2.6c1.4,0.1,2.8-0.2,2.9-2
		c0.1-2.1-1.6-2.6-3.3-3.1c-9-2.5-18.3-3.6-27.6-4c-6.1-0.3-12.3-0.2-18.5,0.2c-3.5,0.2-4.5-0.9-2.9-3.8c2.4-4.5,5.1-8.8,8.3-14.3
		c0.9,4.1,1.5,7.1,2.1,10.1c0.9,4.8,3.1,5.8,7.2,3.3c6.7-4.1,10.8-10.6,15.7-16.5c6.1-1.3,7.7-0.2,8.6,5.8
		C209.1,241.2,209.8,244.7,211.2,247.9z"/>
	<path class="st5" d="M282,357c-16.3-0.9-32-4.6-47.6-8.7c-3.8-1-3.8-2.5-1.2-5c4.7-4.3,8.5-9.1,10-15.6c1.8-7.9,0.5-14.7-4.8-20.8
		c-0.7-0.8-2.2-1.4-1.5-2.8c0.6-1.2,2-1.1,3.1-1c8.7,0.8,17.4,1.5,25.7,4.8c2.7,1.1,4.2,2.5,2.7,5.7c-1.1,2.3-0.3,4.2,0.9,6.4
		c6,11.1,10.2,23,13.8,35.1C283.6,356.1,282.9,356.6,282,357z"/>
	<path class="st29" d="M238.6,329.9c-2,3.4-3.1,7.3-6.2,10.1c-6,5.5-10,4.7-14.4-3.1c-2.3-1.1-2.7-3-1.9-5.3
		c1.8-5.1,5.7-9.2,7.3-14.6c-3.3,2.8-3.5,8.1-8.4,9.3c-2.9-5.3-2-11.1-1.9-16.7c0-1.6,1.4-2,2.7-2.4c5.7-1.9,11.3-2.1,16.9,0
		C240.7,312.4,242.7,320.2,238.6,329.9z"/>
	<path class="st29" d="M267.1,229.9c2.3,3.4,0.6,7.3,1.2,10.9c0.2,1.4-0.1,3.3,1.6,3.8c2.1,0.6,2.9-1.3,3.6-2.7
		c2-3.9,3.8-7.9,5.7-11.9c2.9-2.2,5.4-0.3,8,0.8c4.3,6.5,8.1,13.4,13.4,19.2c0.8,0.9,1.8,1.9,1,3.1c-0.6,1-1.8,0.4-2.8,0.3
		c-12.3-1.6-24.6-1.5-36.8,0.3c-3.7,0.5-5.1-0.2-3.4-4c2.9-6.3,3.4-13.4,6.5-19.7C265.7,229.4,266.4,229.4,267.1,229.9z"/>
	<path class="st30" d="M165,271.2c-0.3-1.6,0.3-3,1.1-4.3c3.7,0.6,6-0.4,5.6-4.7c1.2-3.7,3.8-4.4,7.5-4.3c8.6,0.1,17.2,0.5,25.7,2
		c3.3,0.6,4.3,2,4,4.9c-0.5,4.4,1.2,8.9-0.9,13.2c-1.6-1.8-3.3-2.9-6-2.7c-6.6,0.5-13.3,0.4-19.8-1c-4.6-1-8-0.4-9.4,4.6
		c-1.5-1.3-0.7-3.1-1-4.7c-0.3-1.6,0.9-4.2-2.1-4.1c-2.8,0.2-1.6,2.7-1.8,4.3c-0.2,1.5-0.1,3-0.1,4.5c-2.4-0.2-1.8-2.2-2.2-3.7
		C165.4,273.9,166.4,272.4,165,271.2z"/>
	<path class="st31" d="M300.1,275.9c-3.5,13-5.5,14.4-20.3,14.4c-10.6,0-14.5-3.1-17-13.4c-1-3.4,0.4-5.4,3.8-5.3
		c9.7,0.2,19.2-1.7,28.9-1.1C298.8,270.7,301.6,271.5,300.1,275.9z"/>
	<path class="st32" d="M300.1,275.9c0.3-3.3-1.2-4.1-4.4-4c-9.5,0.5-19.1,0.7-28.7,0.8c-3.2,0-4.6,1-4.2,4.2c-2.3-1.8,1.2-6-3-7
		c2.2-2.3,2.5-4.5,0.1-6.8c3.7-5.4,9.5-5,15-5c7.3,0,14.5-0.5,21.8,0.8c3.1,0.5,4.7,1.5,4.3,4.6
		C300.4,267.6,301.5,271.8,300.1,275.9z"/>
	<path class="st29" d="M189.2,324.3c1-2,3-2.5,4.8-3.3c4.1-3.1,7.5-7,12-9.6c2.3-1.4,3.3-1,3.2,1.8c-0.2,5.4,0.7,10.6,1.9,15.8
		c3.9,4.3,3.2,6-3.9,9.3c-5.4,2.9-10.7,6-16.7,7.8c-4.3,1.3-5.6,0.4-5.8-3.9C184.5,335.8,184.8,329.5,189.2,324.3z"/>
	<path class="st33" d="M172.9,278.9c0-1.3,0.1-2.7,0-4c-0.2-2.6,1.1-3.3,3.3-2.9c9.9,1.6,19.7,2.5,29.7,1.4c3.5-0.4,1.4,2.9,2.1,4.5
		c-5.5,12.5-14.1,15.9-26.7,10.6C177.1,286.7,173.6,284,172.9,278.9z"/>
	<path class="st9" d="M190.9,440c0.1-3,2.5-2,4.1-2.2c9.2-1.1,18.5-1.6,27.1-5.7c1.2-1.5,3.1-1.3,4.6-2c1.4-0.5,2.7-1.1,3.4-2.5
		c1.1-7.8,0.1-15.6,0.5-23.4c0.1-2.2-0.6-4.7,1.9-6.3c2.2,1.6,1.8,3.9,1.8,6c0.1,6,0,12,0.1,18c0,1.6-0.6,3.4,1.4,4.4
		c2.1-0.1,3.8-1.5,5.8-2c1.1-0.4,2.2-0.7,3.2-1.3c2.7-1.3,5.4-2.5,8.1-3.7c2.9-1.3,2.7-2.7,0.7-4.7c-3.2-3.1-6.5-6.1-9.3-9.6
		c-1-1.2-2.1-2.4-3.1-3.6c-2.8-2.8-4.4-6.5-7.8-8.8c-2-1.4-1.2-4.3-3.1-5.7c-1.7-1.8-3-3.9-4.2-6.1c-1.1-1.5-1.4-3.2-2-4.9
		c-4.5-7.4-8.9-14.9-12.5-22.8c1.5,0.8,2.4-0.2,3.4-1.1c1.1,7.3,5.7,13,9.3,19.1c10.2,17.5,22.6,33.2,38.3,46.1
		c1.1,0.9,3,1.9,2.2,3.5c-1.2,2.3-2.4-0.7-3.6-0.4c-2.1,0.6-4.1,1.3-6,2.2c-16.1,7.3-32.3,14-49.8,16.9
		C200.5,440.2,195.7,440,190.9,440z"/>
	<path class="st34" d="M165,271.2c2.2-0.4,1.8,1.3,2,2.5c0.3,1.8-0.4,3.7,0.9,5.3c1.1,9.3,8.2,15.7,18.8,16.9
		c1.8,0.2,3.6,0.4,5.4,0.5c-0.1,1-0.1,2.1-0.2,3.1c0,0.8-0.3,1-0.9,0.4c-5.3-1.4-10.6-2.7-15.8-4.3c-10.4-3-12.8-6.8-11.4-17.6
		C164.1,275.8,164.6,273.5,165,271.2z"/>
	<path class="st5" d="M191,299.9c0.3-0.1,0.6-0.2,0.9-0.4c7.3,1.6,14.3,2.1,22,0.4c11.7-2.5,23.9-1.4,35.8,0.4
		c8,1.2,15.5,0.2,23.2-1.4c1.1-0.7,2.1-0.9,3.1,0.1c-7.9,3.1-16.1,3.6-24.4,2.7c-11.4-1.4-22.8-1.9-34.3-1.6
		c-1.8,0.1-3.6,0.7-5.3,1.4C204.8,304.3,197.9,302.6,191,299.9z"/>
	<path class="st35" d="M207,336.8c5.9-2.1,6.4-3,4.1-7.8c1.7,1.4,2.4-1.4,3.8-0.9c0.7,1.3,0.9,2.9,2,3.9c-1.1,1.9,1.3,3.1,1,4.8
		c-1.3,0.6-3.4,0.7-2.1,3.1c-3.1-0.9-4,3.3-6.8,2.9C207.8,341.1,206.8,339.1,207,336.8z"/>
	<path class="st36" d="M217,332.1c-3.4,0.1-3.5-1.5-2-3.9c0-0.6,0-1.2,0-1.9c3.1-2.4,4.1-6.3,6.5-9.3c0.9-1.1,1.4-3.3,3.2-2.3
		c2,1,0.3,2.6-0.3,3.8C222,323,219.5,327.5,217,332.1z"/>
	<path class="st37" d="M211.2,247.9c-2.5-2.2-2.7-5.4-2.9-8.2c-0.4-5.7-3.1-7.9-8.4-7.9c1.7-3.4,3.4-6.8,5.2-10.2
		C206.9,230.7,209.5,239.2,211.2,247.9z"/>
	<path class="st38" d="M171.7,262.2c1.2,1.9,2.2,3.9,0,5.6c-2,1.6-3.9,0.5-5.6-0.9c0.9-2.5-1.7-4.9-0.1-8.1
		C167,261.9,169.2,262.4,171.7,262.2z"/>
	<path class="st39" d="M287.2,230.9c-2.7-0.3-5.3-0.6-8-0.8c0.7-3,0.5-6.2,2.4-9C284.3,224,284.9,227.9,287.2,230.9z"/>
	<path class="st5" d="M238.6,329.9c2.6-8.8,2.4-16.8-5.9-22.7c3.3,0,4.8,2.6,6.2,4.9C242.1,317.2,241.8,325.7,238.6,329.9z"/>
	<path class="st40" d="M276,299c-1,0-2.1,0-3.1-0.1c-0.2-1.2-0.4-2.5-0.6-3.7c3.7,1,7.5,0.6,11.9,0.8
		C281.5,298.1,278.4,297.8,276,299z"/>
	<path class="st41" d="M267.1,229.9c-0.7,0-1.3,0.1-2,0.1c-0.4-3.2,0.4-6.2,1.4-9.7C267.6,223.8,268.6,226.8,267.1,229.9z"/>
	<path class="st42" d="M234,352c-0.1,1.5,1.3,3.8-1.9,3.7c-1.1-1.2-2.2-2.5-2.4-4.3C231.2,350.4,232.6,351.7,234,352z"/>
	<path class="st5" d="M304,428c-0.6,4.3,1.2,8.8-1,13C303.6,436.7,301.8,432.2,304,428z"/>
	<path class="st9" d="M282,357c0.3-0.7,0.7-1.3,1-2c1.5,1.7,1.3,4,2,6c-1-0.3-2,1.2-3,0C282.9,359.7,282.9,358.3,282,357z"/>
	<path class="st43" d="M207,336.8c1.3,1.8,2.9,3.6,2,6.1c-5,2.1-9.9,4.3-14.9,6.2c-2.4,0.9-3.6,2.2-2.8,4.8c-5,0.5-8.5-2-9.1-7.4
		c-0.9-7,0.1-13.9,2.5-20.5c0.7-1.9,1.8-4.5,4.6-1.7c-1.4,5.9-3.7,11.6-3.5,17.9c0.1,3,0.5,4.3,3.9,2.9
		C195.6,342.7,201.6,340.3,207,336.8z"/>
	<path class="st44" d="M227,431c-1.4,1.4-3.2,1.4-5,1.1c0-6.8-0.9-13.6,0.7-20.3c1.6,1.1,1.5,2.9,2.1,4.4
		C226.1,421.1,224.2,426.4,227,431z"/>
	<path class="st28" d="M223.8,415.9c-1.2-1.2-0.5-2.8-1-4.1c0.2-8.3,0.4-16.5,0.5-24.8c1.8,0.3,2.3,1.7,2.7,3.2
		c-0.4,7.1-0.7,14.2-0.6,21.2C225.4,413.1,225.3,414.8,223.8,415.9z"/>
	<path class="st45" d="M224.8,389c-0.5-0.6-0.9-1.3-1.4-1.9c-1.2-3.8,0.2-7.4,0.8-11.1c0.9,1.4,1.8,2.8,2.7,4.3
		C225.7,383,227.5,386.5,224.8,389z"/>
	<path class="st15" d="M224.8,389c1.4-2.7-1.9-6.6,2.1-8.8c1.4,1.9,2.7,3.9,4.1,5.8c2,3.4,2.8,7.1,1.2,10.9c-0.8,2-0.6,3.9-0.7,5.9
		c-0.4,9.1,0.8,18.2-0.6,27.2c-1.3,0.4-2.5,0.7-3.8,1.1c-2.6,0.2-3.3-1-3.2-3.5c0.1-3.9,0-7.8,0-11.7
		C224.1,406.9,224.5,398,224.8,389z"/>
	<path class="st46" d="M242,425c-1.7,0.9-3.4,1.9-5.1,2.8c-3.6,1.9-3.4-0.7-3.4-2.9c0-8.1-0.1-16.2,0-24.3c0-2.8-2.1-5.8,0.8-8.4
		c3.2,2.4,5.4,5.6,7.7,8.8C244,409,244.5,417,242,425z"/>
	<path class="st15" d="M244.9,404.1c3.9,3.8,7.7,7.7,11.6,11.5c1.9,1.8,1.8,2.7-0.7,3.7c-3.7,1.5-7.2,3.2-10.8,4.7
		c-1.3,0.1-1.8-0.8-1.9-1.8c-0.3-5.4-0.2-10.9,0-16.3C243.2,404.9,243.6,403.9,244.9,404.1z"/>
	<path class="st47" d="M234.3,392.2c-0.1,10.9-0.2,21.8-0.5,32.7c-0.1,2.4,0.6,3.4,3.1,2.9c-3.7,1.5-4,1.4-4-2.7
		c-0.1-8.6,0-17.2-0.8-25.8c0,8.5,0,17.1,0,25.6c0,1.7,0.8,3.7-1.2,5c0.3-13.5,0.6-27.1,0.9-40.6c0-1.1-0.5-2.2-0.8-3.3
		C234.2,386.9,231.8,390.9,234.3,392.2z"/>
	<path class="st48" d="M244.9,404.1c-1.6,6.7-1.8,13.3,0.1,19.9c-1,0.3-2,0.7-3,1c0-8,0-16,0-24C243,402,244,403,244.9,404.1z"/>
</g>
</svg>
