<?xml version="1.0" encoding="utf-8"?>
<!-- Generator: Adobe Illustrator 26.2.1, SVG Export Plug-In . SVG Version: 6.00 Build 0)  -->
<svg version="1.1" id="레이어_1" xmlns="http://www.w3.org/2000/svg" xmlns:xlink="http://www.w3.org/1999/xlink" x="0px"
	 y="0px" viewBox="0 0 500 500" style="enable-background:new 0 0 500 500;" xml:space="preserve">
<style type="text/css">
	.st0{fill:#FFFFFF;}
</style>
<path class="st0" d="M432.65,500c-121.75,0-243.51,0-365.26,0c-6.02-1.81-12.37-2.92-18.01-5.56
	c-26.66-12.47-40.07-33.73-40.1-63.13C9.19,344.1,9.24,256.88,9.24,169.66c0-21.8-0.15-43.61,0.04-65.41
	C9.57,71.7,30.19,45.2,61.42,38.85c11-2.24,22.65-1.29,34-1.77c2.04-0.09,4.08-0.01,6.36-0.01c0-4.98,0.25-9.22-0.05-13.42
	C100.93,12.25,105.21,4.1,116.22,0c2.93,0,5.86,0,8.79,0c10.94,4.6,14.98,13.01,13.87,24.51c-0.38,3.99-0.06,8.04-0.06,12.3
	c74.32,0,148.08,0,222.39,0c0-4.92-0.13-9.6,0.04-14.27c0.12-3.38,0.21-6.86,1.06-10.1c1.73-6.52,7.14-9.64,12.71-12.45
	c2.93,0,5.86,0,8.79,0c11.01,4.11,15.27,12.26,14.49,23.66c-0.3,4.32-0.05,8.67-0.05,13.42c9.21,0,17.84-0.55,26.37,0.16
	c7.86,0.66,16,1.59,23.32,4.29c26.89,9.94,42.8,34.19,42.82,64.18c0.06,69.81,0.02,139.61,0.02,209.42
	c0,38.89,0.08,77.78-0.03,116.67c-0.09,31.88-19.3,57.66-48.78,65.83C438.9,498.49,435.77,499.21,432.65,500z M46.49,194.64
	c-0.09,1.79-0.24,3.37-0.24,4.96c-0.01,77.12-0.03,154.24,0,231.36c0.01,19.89,12.1,31.96,31.89,31.96
	c114.55,0.01,229.1,0.01,343.65,0c19.89,0,31.98-11.97,31.99-31.85c0.04-77.12,0.02-154.24,0-231.36c0-1.7-0.19-3.39-0.3-5.06
	C317.54,194.64,182.21,194.64,46.49,194.64z M138.78,74.35c0,6.73,0.14,12.9-0.04,19.05c-0.23,7.97-5.63,14.74-13.16,16.92
	c-12.01,3.47-23.32-5.03-23.76-18.03c-0.2-5.94-0.03-11.89-0.03-18.15c-8.36,0-15.99-0.01-23.62,0
	c-19.88,0.02-31.87,11.96-31.93,31.88c-0.05,15.46-0.02,30.92,0,46.37c0,1.55,0.14,3.11,0.21,4.57c136.03,0,271.48,0,406.86,0
	c0-19.55,0.7-38.75-0.26-57.86c-0.6-11.92-8.32-20.9-19.83-23.3c-11.22-2.34-23.08-1.6-34.97-2.23c0,6.66,0.05,12.02-0.01,17.38
	c-0.14,11.78-7.97,20.23-18.66,20.19c-10.67-0.03-18.3-8.47-18.37-20.33c-0.03-5.47-0.01-10.94-0.01-16.48
	C286.81,74.35,213.14,74.35,138.78,74.35z"/>
</svg>
