<?xml version="1.0" encoding="utf-8"?>
<!-- Generator: Adobe Illustrator 26.2.1, SVG Export Plug-In . SVG Version: 6.00 Build 0)  -->
<svg version="1.1" id="레이어_1" xmlns="http://www.w3.org/2000/svg" xmlns:xlink="http://www.w3.org/1999/xlink" x="0px"
	 y="0px" viewBox="0 0 500 500" style="enable-background:new 0 0 500 500;" xml:space="preserve">
<style type="text/css">
	.st0{enable-background:new    ;}
	.st1{fill:#FFFFFF;}
</style>
<g class="st0">
	<path class="st1" d="M248.7,314.6v52.9H107.5c-4.2,0-7.8-1.5-10.6-4.6L80.8,346c-2.9-3-4.3-6.6-4.3-10.6V160.3l-19-38.3h178
		l11.5,52.9H139.6V218h85l11.5,52.9h-73.5l-23-24v67.7H248.7z"/>
	<path class="st1" d="M380.2,392.6l-9.5-23.7c-2.9,1-5.9,1.7-9.2,2.1c-3.3,0.5-7.1,0.7-11.5,0.7c-12.4,0-24-1.2-34.7-3.7
		c-10.7-2.5-20.1-6.3-28-11.4c-7.9-5.1-14.2-11.6-18.8-19.4c-4.6-7.8-6.9-17-6.9-27.7V180c0-10.7,2.3-19.9,6.9-27.7
		c4.6-7.8,11-14.3,19.1-19.4c8.1-5.1,17.8-9,28.9-11.4c11.1-2.5,23.3-3.7,36.5-3.7c13.2,0,25.4,1.2,36.5,3.7
		c11.1,2.5,20.7,6.3,28.9,11.4c8.1,5.1,14.5,11.6,19.1,19.4c4.6,7.8,6.9,17.1,6.9,27.7v129.5c0,9-1.6,16.9-4.9,23.9
		c-3.3,7-7.8,12.9-13.5,17.9l20.4,41.4H380.2z M324.8,296c0,7.6,2.8,13.3,8.3,17.1c5.5,3.8,12.2,5.7,19.8,5.7
		c7.7,0,14.3-1.9,19.8-5.7c5.5-3.8,8.3-9.5,8.3-17.1V193.4c0-7.6-2.8-13.3-8.3-17.1c-5.6-3.8-12.2-5.7-19.8-5.7
		c-7.7,0-14.3,1.9-19.8,5.7c-5.6,3.8-8.3,9.5-8.3,17.1V296z"/>
</g>
</svg>
