<?xml version="1.0" encoding="utf-8"?>
<!-- Generator: Adobe Illustrator 23.0.0, SVG Export Plug-In . SVG Version: 6.00 Build 0)  -->
<svg version="1.1" id="레이어_1" xmlns="http://www.w3.org/2000/svg" xmlns:xlink="http://www.w3.org/1999/xlink" x="0px"
	 y="0px" viewBox="0 0 1200 467" style="enable-background:new 0 0 1200 467;" xml:space="preserve">
<style type="text/css">
	.st0{fill:#009BFE;}
	.st1{fill:none;}
</style>
<path class="st0" d="M1201,126c-12.4,24.1-24.7,48.1-37.1,72.2c-33.7,65.8-67.3,131.5-101,197.3c-3.5,6.8-8.2,11.9-16.2,12.5
	c-9.1,0.7-15-4.2-18.9-12c-13.4-26.2-26.8-52.4-40.2-78.6c-31.4-61.3-62.8-122.6-94.1-184c-1.5-3-3.3-5.8-3.6-9.2
	c-0.6-5,1.4-8.3,6.4-9c9.1-1.3,18.3-1.3,27.4,0.1c5.1,0.8,7.6,5,9.8,9.3c8.9,17.5,17.8,35,26.7,52.5
	c27.2,53.6,54.3,107.1,81.5,160.7c1.1,2.2,2.3,4.4,3.8,7.2c7.5-14.7,14.5-28.6,21.6-42.5c29.4-58,58.8-116,88.3-174.1
	c1.2-2.4,2.5-4.7,3.8-7c2.3-4.1,5.8-6.2,10.5-6.6c7.5-0.5,15-0.6,22.5-0.1c4,0.3,7,1.9,9,5.3C1201,122,1201,124,1201,126z"/>
<path class="st0" d="M842,1c5.3,2.3,10.7,4,15,8.1c9.7,9.5,12.3,25.1,5.8,37.3c-6.4,11.9-20.1,17.8-34.1,14.8
	c-13.4-2.9-22.9-13.9-23.6-27.3C804.3,19,812,7.3,825.5,2.5c1.2-0.4,2.8-0.1,3.5-1.5C833.3,1,837.7,1,842,1z"/>
<path class="st0" d="M457,1c0.5,0.3,1.1,0.7,1.6,0.9c15.7,3.8,25.5,18.2,23.1,34.1c-2.5,16.5-15.7,26.9-32.9,26
	c-15.5-0.8-27.5-13.3-28-29c-0.5-15.7,7.8-26.9,23.2-31.1c0.4-0.1,0.7-0.6,1.1-0.9C449,1,453,1,457,1z"/>
<path class="st0" d="M643.5,292.5c-9.1,11.1-18,21.9-26.8,32.7c-19.7,24.1-39.5,48.2-59,72.5c-5.8,7.2-12.6,10.9-21.9,10.4
	c-7.3-0.4-14.7,0-22-0.1c-2.8,0-6.1,0.4-7.6-2.5c-1.5-3,1-5.4,2.7-7.5c15.1-18.9,30.2-37.7,45.4-56.5c20.7-25.5,41.4-51,62.2-76.3
	c2.3-2.8,2.1-4.3-0.1-7c-34.9-42.9-69.7-85.9-104.5-128.9c-2.1-2.6-4.1-5.3-5.9-8.1c-2-3.2-0.9-5.8,2.8-6.1c12-1.1,24-1.5,35.9,0.4
	c5.4,0.8,8.8,5.1,12.1,9.1c28,34.3,56.1,68.6,84.1,103c0.8,1,1.7,2,2.8,3.2c15.3-18.8,30.5-37.4,45.7-55.9
	c13.8-16.9,27.7-33.8,41.3-50.8c4.8-6,10.5-9.5,18.3-9.4c8.2,0.1,16.3-0.2,24.5,0c2.8,0.1,6.6-0.6,8.1,2.7c1.5,3.2-1.4,5.6-3.2,7.9
	c-10.8,13.6-21.6,27.1-32.5,40.6c-25,30.8-50,61.6-75.1,92.3c-2.3,2.8-2.4,4.5-0.1,7.4c34.3,43.3,68.6,86.8,102.7,130.3
	c2.3,2.9,6.4,5.8,4.3,9.9c-2,3.9-6.8,2.4-10.6,2.5c-6.3,0.2-12.7-0.2-19,0.1c-9.3,0.5-16.2-3.1-21.9-10.5
	c-16.3-21.1-32.9-41.9-49.4-62.9C665.8,320.8,654.8,306.9,643.5,292.5z"/>
<path class="st0" d="M432.1,261.3c0-43.8,0-87.6,0-131.4c0-11.3,4.1-15.5,15.2-15.5c4.3,0,8.7-0.1,13,0.4c5.9,0.7,9.5,4.7,10,10.7
	c0.1,1.5,0.1,3,0.1,4.5c0,87.6,0,175.2,0,262.8c0,4.4,0,8.7-3.5,12c-5.1,4.9-26.2,4.9-31.2-0.1c-3.1-3-3.6-6.9-3.6-11
	C432.1,349.5,432.1,305.4,432.1,261.3z"/>
<path class="st0" d="M816.6,260.9c0-43.6,0-87.3,0-130.9c0-11.8,3.8-15.6,15.5-15.6c4,0,8-0.1,12,0.3c6.5,0.7,10.4,5.1,10.8,11.6
	c0.1,1.3,0,2.7,0,4c0,87.3,0,174.5,0,261.8c0,12.4-3.6,16-16.1,16c-3.7,0-7.3,0.1-11-0.1c-6.2-0.3-10.5-4.5-11.1-10.7
	c-0.2-1.8-0.1-3.7-0.1-5.5C816.6,348.2,816.6,304.6,816.6,260.9z"/>
<g>
	<path class="st0" d="M390.8,230.5c-11.7-47.5-41.9-79.9-86-99.3c-46.6-20.5-95.1-21-143.9-9.4C98.4,136.6,45.9,169.4,1,215
		c0,0.3,0,0.7,0,1c1.3,2,1.5,4.3,2.8,6.4c6.2,9.7,12.4,19.4,18.5,29.1c3.6,5.6,8.5,5.4,12-0.3c2.6-4.2,2.4-8.6,1.2-13.1
		c-1.1-4.2-0.1-7.7,2.2-11.3c9.1-14,21.1-25.2,33.9-35.7c0.6-0.5,1.3-1.1,2.3-0.8c1,1.8,0.5,3.9,0.5,5.8c0,81.1,0,162.3,0,243.4
		c0,1.3-0.1,2.7,0,4c0.3,3.7-1.2,6-4.8,7.1c-3.3,1.1-6.5,2.6-9.3,4.8c-4.9,4-5,8-0.5,12.6c24.7,0,49.3,0,74,0
		c3.3-7.4,2.2-10.2-5.4-14c-1.8-0.9-3.6-1.9-5.5-2.2c-4-0.8-4.7-3.1-4.6-6.8c0.2-11.2,0.1-22.3,0.1-33.5c0-7.6,0-15.3,0-23.4
		c2.3,0.7,4,1.2,5.7,1.8c38.6,12.6,78,20,118.8,16.2c33.2-3.1,64-13.1,91.8-32C382.7,341.4,404.6,286.1,390.8,230.5z M326.8,322.3
		c-19.9,34.3-50.7,52.7-89.4,58.7c-8.3,1.3-16.6,1.4-24.9,1.4c-30.3-0.5-60-4.7-88.3-16.3c-4.4-1.8-5.7-4.1-5.7-8.8
		c0.2-62.2,0.2-124.3,0-186.5c0-4.5,1.6-6.9,5.2-9.1c22.9-13.6,47.8-20.8,74-23.9c25.9-3,51.3-0.8,75.2,10.4
		c38.2,18,59.8,48.8,67,89.8C345.1,267.6,342,296.1,326.8,322.3z"/>
	<path class="st1" d="M272.9,148.4c-23.9-11.2-49.3-13.4-75.2-10.4c-26.2,3-51.1,10.3-74,23.9c-3.6,2.2-5.2,4.5-5.2,9.1
		c0.2,62.2,0.2,124.3,0,186.5c0,4.7,1.3,7,5.7,8.8c28.3,11.6,58,15.7,88.3,16.3c8.3,0,16.7-0.1,24.9-1.4
		c38.7-6.1,69.5-24.4,89.4-58.7c15.2-26.2,18.2-54.7,13.1-84.1C332.7,197.1,311.1,166.3,272.9,148.4z"/>
</g>
<g>
</g>
<g>
</g>
<g>
</g>
<g>
</g>
<g>
</g>
<g>
</g>
<g>
</g>
<g>
</g>
<g>
</g>
<g>
</g>
<g>
</g>
<g>
</g>
<g>
</g>
<g>
</g>
<g>
</g>
</svg>
