<?xml version="1.0" encoding="utf-8"?>
<!-- Generator: Adobe Illustrator 23.0.0, SVG Export Plug-In . SVG Version: 6.00 Build 0)  -->
<svg version="1.1" id="레이어_1" xmlns="http://www.w3.org/2000/svg" xmlns:xlink="http://www.w3.org/1999/xlink" x="0px"
	 y="0px" viewBox="0 0 78 78" style="enable-background:new 0 0 78 78;" xml:space="preserve">
<style type="text/css">
	.st0{fill:#FFFFFF;}
	.st1{fill:none;}
</style>
<g>
	<path d="M26.8,19.7c0,4.7,0,9.5,0,14.2c0,2.3,0,4.6,0,7c0-2.3,0-4.6,0-7C26.8,29.1,26.8,24.4,26.8,19.7z"/>
	<path class="st0" d="M65.9,0H12.1C5.4,0,0,5.4,0,12.1v53.9C0,72.6,5.4,78,12.1,78h53.9C72.6,78,78,72.6,78,65.9V12.1
		C78,5.4,72.6,0,65.9,0z M58.6,57.8c-9.4,4.2-19,3.8-28.8,1.4c-0.9-0.2-1.8-0.5-3-0.8c0,1.9,0.1,3.7,0,5.4c-0.1,1.2,0.8,1.3,1.5,1.8
		c1.2,0.9,2.1,2.1,1.5,3.8c-0.5,1.7-1.8,2.1-3.4,2.1c-3.6,0-7.2,0-10.8,0c-1.5,0-2.7-0.4-3.2-2c-0.5-1.6,0-2.9,1.4-3.8
		c0.8-0.5,1.5-0.9,1.5-2.1c0-12.1,0-24.2,0-36.4c0-0.6,0-1.2-0.1-2.3c-1.9,2-3.6,3.3-3.2,6c0.2,1.7-0.7,2.9-2.5,3.4
		c-1.7,0.4-2.5-0.6-3.3-1.8c-1.1-1.8-2.3-3.6-3.5-5.4c-0.8-1.1-0.9-2.2,0.2-3.2C17,10.5,33.2,3,53.1,7.3c13.8,3,22.7,14.1,22.3,27.3
		C75.1,46.1,68.6,53.4,58.6,57.8z"/>
	<path class="st1" d="M53.1,7.3C33.2,3,17,10.5,2.8,23.9c-1.1,1-1,2.1-0.2,3.2c1.2,1.8,2.3,3.6,3.5,5.4c0.8,1.2,1.6,2.3,3.3,1.8
		c1.8-0.5,2.7-1.7,2.5-3.4c-0.4-2.7,1.3-4,3.2-6c0.1,1.2,0.1,1.8,0.1,2.3c0,12.1,0,24.2,0,36.4c0,1.2-0.7,1.6-1.5,2.1
		c-1.4,0.8-1.9,2.1-1.4,3.8c0.5,1.6,1.7,2,3.2,2c3.6,0,7.2,0,10.8,0c1.6,0,2.9-0.4,3.4-2.1c0.5-1.7-0.3-2.8-1.5-3.8
		c-0.6-0.5-1.5-0.7-1.5-1.8c0.1-1.8,0-3.5,0-5.4c1.2,0.3,2.1,0.6,3,0.8c9.7,2.4,19.4,2.8,28.8-1.4c10-4.4,16.5-11.7,16.8-23.1
		C75.8,21.4,66.9,10.3,53.1,7.3z M62,35.9c-1,9.1-8.1,15.9-17.8,16.6C39.1,52.9,34,52.3,29,50.8c-1.6-0.5-2.3-1.1-2.3-3
		c0.1-2.3,0.1-4.6,0.1-7c0-2.3,0-4.6,0-7c0-4.7,0-9.5,0-14.2c0-1,0-1.8,1.1-2.3c6.6-3.1,13.5-4.6,20.7-2.5
		C57.8,17.5,63.1,26,62,35.9z"/>
	<path class="st0" d="M48.6,14.8c-7.2-2.1-14.1-0.6-20.7,2.5c-1.1,0.5-1.1,1.4-1.1,2.3c0,4.7,0,9.5,0,14.2c0,2.3,0,4.6,0,7
		s0,4.6-0.1,7c-0.1,1.9,0.6,2.5,2.3,3c5,1.5,10.1,2.2,15.3,1.8C53.9,51.8,61.1,45,62,35.9C63.1,26,57.8,17.5,48.6,14.8z"/>
</g>
<g>
</g>
<g>
</g>
<g>
</g>
<g>
</g>
<g>
</g>
<g>
</g>
<g>
</g>
<g>
</g>
<g>
</g>
<g>
</g>
<g>
</g>
<g>
</g>
<g>
</g>
<g>
</g>
<g>
</g>
</svg>
