<?xml version="1.0" encoding="utf-8"?>
<!-- Generator: Adobe Illustrator 23.0.0, SVG Export Plug-In . SVG Version: 6.00 Build 0)  -->
<svg version="1.1" id="레이어_1" xmlns="http://www.w3.org/2000/svg" xmlns:xlink="http://www.w3.org/1999/xlink" x="0px"
	 y="0px" viewBox="0 0 78 78" style="enable-background:new 0 0 78 78;" xml:space="preserve">
<style type="text/css">
	.st0{fill:#474747;}
	.st1{fill:#AFAFAF;}
	.st2{fill:#979797;}
	.st3{fill:#808080;}
	.st4{fill:#686868;}
	.st5{fill:#505050;}
	.st6{fill:#585858;}
	.st7{fill:#707070;}
	.st8{fill:#878787;}
	.st9{fill:#9F9F9F;}
	.st10{fill:#B7B7B7;}
	.st11{fill:#FFFFFF;}
</style>
<path class="st0" d="M-66.5,163.9c1.6-0.6,3.2-0.8,4.9,0C-63.2,163.9-64.8,163.9-66.5,163.9z"/>
<path class="st1" d="M163.5,9.6c-0.1-0.4-0.2-0.8,0.4-1c0,0.3,0,0.6,0,1C163.8,9.8,163.7,9.8,163.5,9.6z"/>
<path class="st2" d="M163.5,9.6c0.1,0,0.3,0,0.4,0c0,0.3,0,0.6,0,1c-0.1,0.2-0.3,0.2-0.4,0C163.5,10.2,163.5,9.9,163.5,9.6z"/>
<path class="st3" d="M163.5,10.6c0.1,0,0.3,0,0.4,0c0,0.3,0,0.6,0,1c-0.1,0.2-0.3,0.2-0.4,0C163.5,11.2,163.5,10.9,163.5,10.6z"/>
<path class="st4" d="M163.5,11.5c0.1,0,0.3,0,0.4,0c0,0.3,0,0.6,0,1c-0.1,0.2-0.3,0.2-0.4,0C163.5,12.2,163.5,11.9,163.5,11.5z"/>
<path class="st5" d="M163.5,12.5c0.1,0,0.3,0,0.4,0c0,0.3,0,0.6,0,1C163.5,13.3,163.5,12.9,163.5,12.5z"/>
<path class="st6" d="M163.5,20.3c-0.1-0.4-0.1-0.8,0.4-1c0,0.3,0,0.6,0,1C163.8,20.5,163.7,20.5,163.5,20.3z"/>
<path class="st7" d="M163.5,20.3c0.1,0,0.3,0,0.4,0c0,0.3,0,0.6,0,1c-0.1,0.2-0.3,0.2-0.4,0C163.5,20.9,163.5,20.6,163.5,20.3z"/>
<path class="st8" d="M163.5,21.3c0.1,0,0.3,0,0.4,0c0,0.3,0,0.6,0,1c-0.1,0.2-0.3,0.2-0.4,0C163.5,21.9,163.5,21.6,163.5,21.3z"/>
<path class="st9" d="M163.5,22.2c0.1,0,0.3,0,0.4,0c0,0.3,0,0.6,0,1c-0.1,0.2-0.3,0.2-0.4,0C163.5,22.9,163.5,22.6,163.5,22.2z"/>
<path class="st10" d="M163.5,23.2c0.1,0,0.3,0,0.4,0c0,0.3,0,0.6,0,1C163.3,24.1,163.5,23.6,163.5,23.2z"/>
<g>
	<path class="st11" d="M76.6,29.6c0-0.1,0-0.3,0-0.4c-0.2-0.9-0.1-1.8-0.3-2.7c-1.4-7-4.6-12.8-9.9-17.6c-4.2-3.7-9-6-14.4-7
		c-2.5-0.5-5.1-0.4-7.6-0.4c-3.5,0.1-6.8,0.9-10,2.2c-4.6,1.9-8.4,4.8-11.6,8.6c-2.4,2.9-4.3,6.2-5.5,9.8c-0.8,2.2-1.2,4.5-1.4,6.9
		c-0.2,2.2-0.2,4.5,0.1,6.7c0.6,4,1.9,7.7,3.9,11.2c0.5,0.8,0.4,1.2-0.3,1.9c-4.3,4.3-8.5,8.5-12.8,12.8c-1,1-2.1,2-3,3.1
		c-1.1,1.4-2,2.8-2.1,4.7c-0.1,1.2-0.1,2.5,0.6,3.6c1.1,1.8,2.5,3.2,4.8,3.5c0,0,0.1,0,0.1,0c0.5-0.1,1-0.1,1.5,0c0.1,0,0.2,0,0.3,0
		c0.7-0.1,1.5-0.2,2.2-0.5c1.4-0.7,2.6-1.6,3.7-2.7c4.9-4.8,9.7-9.7,14.5-14.5c0.8-0.8,1.2-0.8,2.1-0.3c5.8,3.3,12.1,4.6,18.7,3.9
		c5.1-0.6,9.7-2.4,13.8-5.4c3.4-2.4,6.2-5.4,8.4-8.9c1.6-2.6,2.8-5.5,3.5-8.5c0.4-1.5,0.6-3.1,0.8-4.6c0-0.2,0-0.4,0-0.6
		c-0.1-0.1-0.1-0.2-0.1-0.3c0-0.1,0-0.2,0-0.3c0-0.1,0-0.2,0-0.3c0-0.1,0-0.2,0-0.3c0-0.1,0-0.2,0.1-0.3c0-0.6,0-1.2,0-1.8
		c-0.1-0.1-0.1-0.2-0.1-0.3c0-0.1,0-0.2,0-0.3c0-0.1,0-0.2,0-0.3c0-0.1,0-0.2,0-0.3C76.6,29.8,76.5,29.7,76.6,29.6z M46.3,54.3
		c-12.4,0-22.5-10-22.5-22.4c0-12.4,10-22.4,22.4-22.5c12.5,0.1,22.4,9.9,22.5,22.5C68.8,44.2,58.7,54.3,46.3,54.3z"/>
	<path class="st11" d="M55.1,15.1c-2.4-1-4.9-1.5-7.8-1.5c-0.7,0.1-1.7,0.1-2.7,0.2c-7.2,1.2-12.2,5.2-15.3,11.8
		c-0.6,1.2-0.2,2.7,0.7,3.5c1,0.9,2.4,1.1,3.7,0.4c0.9-0.5,1.3-1.3,1.7-2.1c2-4,5.2-6.4,9.5-7.3c2.8-0.6,5.4-0.2,8,0.8
		c1.7,0.6,3.4-0.2,4-1.8C57.6,17.6,56.8,15.8,55.1,15.1z"/>
</g>
</svg>
